<?xml version="1.0" encoding="utf-8"?>
<!-- Generator: Adobe Illustrator 18.1.1, SVG Export Plug-In . SVG Version: 6.00 Build 0)  -->
<svg version="1.1" id="Layer_1" xmlns="http://www.w3.org/2000/svg" xmlns:xlink="http://www.w3.org/1999/xlink" x="0px" y="0px"
	 viewBox="0 0 84.5 117.5" enable-background="new 0 0 84.5 117.5" xml:space="preserve">
<g>
	<polygon fill="#FFFFFF" points="21.3,67.4 45.3,109.3 67.6,67.4 	"/>
	<g>
		<path fill="#FFFFFF" d="M21.5,69.8c-0.2,0-0.1,0.4-0.2,0.5C21.6,70.2,21.4,69.7,21.5,69.8z"/>
		<polygon fill="#FFFFFF" points="24.9,68.9 24.9,69.1 25.4,68.6 		"/>
		<path fill="#FFFFFF" d="M28.2,68.9c-0.3-0.7-1.2,0.1-1.8-0.1l-0.1-0.2L26,69.2C26.7,69.1,27.7,68.7,28.2,68.9z"/>
		<path fill="#FFFFFF" d="M29.9,70.4c-0.1-0.3,0.4-0.2-0.4-0.1c0,0,0.1,0,0.1,0.1C29.6,70.4,29.7,70.4,29.9,70.4z"/>
		<path fill="#FFFFFF" d="M29.6,70.4C29.2,70.4,29.8,70.7,29.6,70.4L29.6,70.4z"/>
		<path fill="#FFFFFF" d="M31.1,70.3l-0.4,0.2c0.1,0.2,0.5,0.2,0.3,0.3C31.5,70.7,31.4,70.5,31.1,70.3z"/>
		<path fill="#FFFFFF" d="M31.6,69.7l-0.2,0.1C31.4,69.9,31.4,69.9,31.6,69.7z"/>
		<path fill="#FFFFFF" d="M30.8,70.1l0.5-0.2c-0.1-0.1-0.1-0.3-0.2,0.1C31.1,69.7,31,69.9,30.8,70.1z"/>
		<path fill="#FFFFFF" d="M30.5,70c-0.3-0.2-0.6-0.3-0.1-0.5C29.6,69.6,29.7,70.1,30.5,70z"/>
		<path fill="#FFFFFF" d="M28.3,68.2L28,67.9l-0.3,0.2C27.8,68.1,28.3,68.4,28.3,68.2z"/>
		<path fill="#FFFFFF" d="M33.9,70.6c0-0.2-0.2-0.4-0.2-0.6l-0.3,0.2C33.6,70.3,33.9,70.4,33.9,70.6z"/>
		<path fill="#FFFFFF" d="M33.7,70l0.5-0.3C33.8,69.7,33.7,69.9,33.7,70z"/>
		<polygon fill="#FFFFFF" points="31.6,68.9 30.8,69.5 31.8,68.9 		"/>
		<polygon fill="#FFFFFF" points="35.8,70.6 35.5,71 36,70.5 		"/>
		<path fill="#FFFFFF" d="M37.1,70.6c-0.2,0.3,0.3,0.5,0.1,0.7c0.3-0.1,0.6-0.3,0.9-0.5C37.8,70.9,37.5,70.8,37.1,70.6z"/>
		<path fill="#FFFFFF" d="M38.5,70.4c-0.1,0.1-0.3,0.2-0.4,0.3C38.2,70.7,38.3,70.6,38.5,70.4z"/>
		<path fill="#FFFFFF" d="M35.1,69.8c0,0.1,0.1,0.3,0.4,0.4l-0.2-0.4C35.2,69.8,35.1,69.8,35.1,69.8z"/>
		<path fill="#FFFFFF" d="M35.3,69.8L35.3,69.8c0.2,0,0.4,0,0.4,0C35.6,69.9,35.5,69.9,35.3,69.8z"/>
		<path fill="#FFFFFF" d="M35,69.8C35,69.8,35.1,69.8,35,69.8C35.1,69.8,35.1,69.8,35,69.8z"/>
		<path fill="#FFFFFF" d="M32.9,69.3c0.3-0.2,0.9-0.5,0.3-0.9C33,68.8,33.4,69,32.9,69.3z"/>
		<path fill="#FFFFFF" d="M34.8,69.3l-0.5-0.1c0,0.1,0.1,0.3,0,0.4L34.8,69.3z"/>
		<polygon fill="#FFFFFF" points="35,69.2 34.8,69.3 35,69.3 		"/>
		<path fill="#FFFFFF" d="M37.6,70c0.2-0.2,0.5-0.2,0.8-0.2c-0.3-0.1-0.6-0.1-0.9-0.1C37.4,69.8,37.3,70,37.6,70z"/>
		<path fill="#FFFFFF" d="M36.5,69.9L36.5,69.9C36.5,69.8,36.4,69.8,36.5,69.9z"/>
		<polygon fill="#FFFFFF" points="41.1,69.8 41.1,69.7 41.1,69.8 		"/>
		<path fill="#FFFFFF" d="M37.4,69.6c-0.2-0.1-0.4,0-0.5,0.2C37.1,69.7,37.2,69.6,37.4,69.6C37.4,69.6,37.4,69.5,37.4,69.6z"/>
		<path fill="#FFFFFF" d="M39.3,70.2C39.1,70.1,39,70,38.9,70C39,70.1,39.2,70.3,39.3,70.2z"/>
		<path fill="#FFFFFF" d="M36.6,70C36.6,70,36.6,70,36.6,70C36.6,70.1,36.6,70,36.6,70z"/>
		<path fill="#FFFFFF" d="M36.6,70c0.1-0.1,0.2-0.2,0.3-0.3c-0.1,0-0.3,0.1-0.4,0.1C36.5,69.9,36.6,69.9,36.6,70z"/>
		<path fill="#FFFFFF" d="M41.9,67c0,0.4-0.6,0.8-1.2,0.3c-0.5,0.3-0.2,1.6,0.3,2.3c0-0.2,0-0.3,0.5-0.6c-0.2-0.2-1.2-0.5-0.7-0.9
			c0.7-0.2,0.6,0.1,0.9,0.3c-0.3-0.5,0.9-0.7,0.7-1.4l-0.6,0.3C41.9,67.3,42.1,67.1,41.9,67z"/>
		<path fill="#FFFFFF" d="M40.1,69.7l-0.2,0c0.2,0.1,0.4,0.2,0.7,0.5c0.4-0.2,0.4-0.3,0.5-0.5L40.1,69.7L40.1,69.7z"/>
		<path fill="#FFFFFF" d="M38.9,69.7c0.2-0.4,0.7-0.6,0.4-1.1c-0.6,0-0.4,0.4-0.8,0.5C39.5,69.1,38.1,69.4,38.9,69.7
			c-0.2,0-0.4,0-0.6,0.1c0.2,0.1,0.4,0.1,0.5,0.2l0,0l0,0l0,0c0-0.1-0.1-0.1,0-0.1c0,0,0,0,0,0C38.9,69.8,38.9,69.8,38.9,69.7
			c0.3,0.1,0,0.1,0,0.2c0,0,0,0,0,0.1l0,0l1-0.2C39.6,69.6,39.4,69.7,38.9,69.7z"/>
		<path fill="#FFFFFF" d="M33.8,67.5c0,0,0,0.1,0,0.1C33.9,67.6,33.9,67.6,33.8,67.5z"/>
		<path fill="#FFFFFF" d="M34.2,67.8c-0.1,0.1-0.1,0.2-0.4,0.2c-0.2-0.1,0-0.2,0-0.3c-0.1,0.1-0.5,0.3-0.1,0.5l0.1-0.1
			c0.4,0.1,0.9,0.7,0.9,0.7C34.6,68.5,34.5,68.2,34.2,67.8z"/>
		<path fill="#FFFFFF" d="M36.6,68.6l0.8-0.2L37,68.1l0,0.2C36.5,68.2,36.6,68.5,36.6,68.6z"/>
		<polygon fill="#FFFFFF" points="41.2,70 41.1,70.4 41.6,69.8 		"/>
		<polygon fill="#FFFFFF" points="42.3,69.9 42.3,70.3 42.6,70.1 		"/>
		<path fill="#FFFFFF" d="M52.4,101l0,0.3C52.4,101.1,52.4,101,52.4,101z"/>
		<path fill="#FFFFFF" d="M53.3,99.4l-0.2-0.1C53.2,99.4,53.3,99.5,53.3,99.4z"/>
		<path fill="#FFFFFF" d="M63.2,70.4c-0.6,0.4-1.4,0.7-0.8,0.4l0.6-0.2C62.9,70.6,63,70.5,63.2,70.4z"/>
		<path fill="#FFFFFF" d="M58.2,85.3c0.1,0,0.1,0,0.2,0c-0.1-0.1-0.2-0.3-0.3-0.4C58.2,85,58.2,85.1,58.2,85.3z"/>
		<path fill="#FFFFFF" d="M59.7,86.4l-0.5,0.3C59.3,86.6,59.5,86.5,59.7,86.4z"/>
		<path fill="#FFFFFF" d="M46.1,113.9l-0.2,1.3C46.3,114.4,46.1,114.3,46.1,113.9z"/>
		<path fill="#FFFFFF" d="M53.6,69.8c0.3,0.2,0.6,0.2,0.8,0.3C54,69.8,53.7,69.4,53.6,69.8z"/>
		<path fill="#FFFFFF" d="M48.7,98.2c0,0.2,0,0.3,0.1,0.3C48.8,98.3,48.8,98.2,48.7,98.2z"/>
		<path fill="#FFFFFF" d="M55.3,70c-0.1,0-0.1-0.1-0.2-0.1c-0.2,0.1-0.5,0.1-0.7,0.1C54.6,70.2,55,70.3,55.3,70z"/>
		<path fill="#FFFFFF" d="M25.8,80.3C25.8,80.2,25.8,80.2,25.8,80.3C25.8,80.2,25.8,80.2,25.8,80.3z"/>
		<path fill="#FFFFFF" d="M24.4,69.1c0.1,0.1,0.2,0.2,0.2,0.4C24.7,69.3,24.6,69.2,24.4,69.1z"/>
		<path fill="#FFFFFF" d="M46.7,70.1C46.5,70.2,46.7,70.2,46.7,70.1L46.7,70.1z"/>
		<path fill="#FFFFFF" d="M45.6,68.4c0,0,0.1-0.1,0.1-0.2C45.7,68.3,45.6,68.4,45.6,68.4z"/>
		<path fill="#FFFFFF" d="M57.6,67.3L57.6,67.3C57.5,67.3,57.5,67.3,57.6,67.3z"/>
		<path fill="#FFFFFF" d="M46.4,69.9c0.1,0.1,0.2,0.1,0.3,0.1C46.6,70,46.5,70,46.4,69.9z"/>
		<path fill="#FFFFFF" d="M46.4,70.1c-0.1,0-0.1,0-0.2,0C46.2,70.2,46.2,70.2,46.4,70.1z"/>
		<path fill="#FFFFFF" d="M47.1,70.1c-0.1,0-0.3,0-0.4,0c0,0,0.1,0.1,0.1,0.1C46.8,70.1,46.9,70.1,47.1,70.1z"/>
		<path fill="#FFFFFF" d="M36.4,96.3C36.4,96.3,36.4,96.2,36.4,96.3C36.1,96.1,36.2,96.2,36.4,96.3z"/>
		<path fill="#FFFFFF" d="M65.8,75.2C65.8,75.2,65.8,75.2,65.8,75.2L65.8,75.2L65.8,75.2z"/>
		<path fill="#FFFFFF" d="M65.6,76.1c-0.3-0.6-0.2-0.7,0.1-0.9l-1.2-0.3L65.6,76.1z"/>
		<path fill="#FFFFFF" d="M50.3,105.2c0,0,0.2-0.2,0.4-0.3c0.2-0.2,0.4-0.3,0.4-0.3c0,1.4-0.7,2.3,0.2,1.6c-0.2-0.3-0.3-0.6-0.1-1
			c0-0.2,0.2-0.5,0.2-0.6c0-0.1,0.1-0.3,0.2-0.4c0.2-0.5,0.5-1-0.1-1.4l0.4-0.2c-0.1,0.1,0,0.1-0.1,0.2c0.9-0.4-0.6-1,0-1.7
			c0.3-0.3,0.5-0.4,0.6-0.1l0.1-0.8c0.1-0.2,0.3,0,0.2,0.2l0.4-1.1l0,0c-0.1-0.2-0.2-0.7-0.3-1c0.3-0.2,0.1,0.2,0.2,0.2l0-0.7
			c0.4-0.1,0.5,0.6,0.2,0.9c1.5,0.1-0.1-0.6,1.3-1.4L54.5,98c0.9,0,0.8-0.5,1.6-0.9c-0.3,0-1.7,0.6-1.7-0.1c0.2-0.1,0.3-0.3,0.3-0.8
			c0.4,0.2,0.5-0.2,0.7-0.6l0.5,0.3c0.1-0.5-0.2-0.6-0.4-1c0.3-0.5,0.8-0.3,1.2-0.2c0.5-0.7-1,0.2-0.6-0.8c0.6-0.5,0.6-1.1,0.6-2.1
			c0.4-0.3,0.3,0.3,0.6,0.2l-0.2-0.6c0.1-0.1,0.2,0,0.2,0.1c0-0.4-0.5-0.3-0.4-0.9c-0.5-0.5,1.5-0.6,1.1-1.6
			c0.2-0.1,0.3,0.3,0.5,0.3c0-1.1,0.1-1-0.2-2l0.7-0.4c-0.7,0.2-0.9-0.6-1-1.4c-0.3,0.1-0.5,0.1-0.7,0.1l0.1-1
			c0.1-0.1,0.3,0.1,0.5,0.4c0-0.1,0-0.2-0.1-0.2c0.4-0.2,0.6,0.1,0.8,0.5c-0.2,0-0.3,0.1-0.5,0.1c0.2,0.4,0.5,0.8,0.9,0.9
			c0-0.1,0-0.2,0-0.4c0.1,0.1,0.1,0.2,0.2,0.2c0.1,0,0-0.1-0.1-0.4l0.7,0.1l-0.2-0.2l1-0.9c-0.2-1.1-0.8-2.3-0.4-3.7
			c0.3,0.6,0.7,0.5,1.3,0.8c-0.8,0-0.3,1.1-0.7,1.7c0.2-0.3,0.5-0.1,0.5,0l0.1-1.4c0.4,0.3,0.5-0.1,0.8-0.3c-1-0.2-0.1-1.2-0.2-1.8
			c0.3,0.1,0.6,0.4,0.2,0.9c1-0.3-0.6-1.4,0.3-1.7c-0.1,0.1-0.2,0.2,0,0.3c-0.1-0.5,0.5-1.1,0.7-0.8L63.3,79
			c0.6-0.9,1.5-2.8,0.8-3.3c0.1,0,0.8,0.6,1,0.7l-1.7-3c0.6,0.5,2.4,0.8,2.4,1.7c0.2-0.2,0.5-0.4,0.5-1c-0.2,0.1-1.1-0.1-1.1-0.4
			c0.5-0.1,0.6-0.1,0.8-0.2c0.2-0.1,0.3-0.2,0.9-0.7c-0.3,0.3-1.2-0.4-1-0.8c0.1,0.1,1.2,0.2,1.2,0.4c0,0-0.1-0.4-0.3-0.7
			c-0.1-0.3-0.3-0.6-0.3-0.6c0.1,0.3,1,0.1,1.6-0.3c-0.3,0.2,0.6-1.2,0.7-1.5l-0.6,0.6c0.5-0.7,0.2-1-0.2-1.1
			c-0.4-0.1-0.9-0.1-0.6-0.7c0.3-0.1,1.9-0.6,2.5-1.4c-0.4,0.1-1.6,0.3-2.7,0.7c-1.2,0.5-2.2,1-2.7,1.2l0.3-0.3c0,0-1,0.4-1,0.4
			c0.5-0.4,1.4-0.9,2.5-1.4c1.1-0.5,2.5-1.1,3.7-1.5c0.2,0.1,0.3,0.1,0.4,0.2c0.6-0.6,0.7-0.6,0.9-0.9c-0.1,0-0.2,0-0.5,0
			c0.1-0.2,0.7-0.4,1.2-0.4c0,0.1-0.1,0.2-0.1,0.3l0.2-0.4l-1.9-0.2c-0.8,0.7-2.7,0.7-3.2,1.2c0,0,0.8-0.2,1.6-0.3
			c0.9-0.2,1.7-0.3,1.7-0.3c-0.4,0.3-1.5,0.8-2.5,1.2c-1,0.4-1.9,0.7-2.4,0.6c-0.1-0.3,1.4-1.2,1.7-1.4c-0.5,0.2-1.9,0.4-1.9,0.3
			l1-0.4c-0.3-0.1-0.9,0.1-1.4,0.3c-0.5,0.2-0.9,0.3-1.3,0c-0.3,0-0.8-0.9-1-0.5c0.5,0.8-0.4,3.1-0.7,3.7c0,0-0.2-0.2-0.4-0.4
			c-0.2-0.2-0.6-0.5-0.7-0.7c-0.4-0.6,0.6-1.4,0.3-2c0,0.2-0.2,0.4-0.3,0.5c-0.3-0.2,0.1-0.6-0.4-0.5c-0.1,0.7-1.1-0.1-0.3,0.6
			c-0.5,0.2-0.6-0.1-1.2-0.1c0.2,0.4-0.6,1.5-1.1,1.7c0-0.2-0.1-0.4-0.1-0.5c-1.1-0.1-1.7-0.4-2.7-0.4c-0.1-0.2-0.6-0.4-0.4-0.7
			c-0.1,0.1-0.3,0.4-0.6,0.4c-0.6-0.6,0.7-0.1,0.2-0.8c0,0.4-0.8,0.5-1.3,0.8c0.1,0.6,1,0.1,1.5-0.1c0,0.8-0.8,1.7-1.8,2.1
			c-0.8,0.2-0.4-0.5-0.5-0.4c-1.6-0.1-1.4,1.5-2.7,0.9c-0.5-0.5,0-1.1-0.1-1.5c0.7-0.2,1.1,0.3,1.5,0.3l-0.6-0.3
			c0.2-0.2,0.7-0.3,0.9-0.2c-0.4-0.5-2.7-0.1-3.9-0.5c-0.2,0.2-0.6,0.4-0.4,0.6l0.4-0.1c0.4,0.4-0.7,0.6-0.2,0.8
			c-0.5,0.3-1.1,0.8-1.8,0.5l-0.1-0.6c0,0.2,0.5,0.4,0.7,0.2c-0.3,0.3-1.1-0.8-1.5,0l0.5,0.4c-0.5,0.3-1.2,1-1.8,0.8
			c0.3,0.6,0.2-0.1,0.6,0.6c-0.4-0.9,1.7,0,1-0.9c0.5,0.8,0.8,0.3,1.4,1c0-0.2-0.2-0.4,0.3-0.3c0-0.1,0.1-0.1,0.1-0.2c0,0,0,0,0,0
			l0,0c0,0,0,0,0,0c-0.1-0.1-0.2-0.2-0.3-0.3c0.3-0.5,1.1-0.4,1.4-0.7c0.3,0.1-0.1,0.2,0,0.4L48,69c0,0.4,0.9,0.7,0.1,1l0.7,0
			c0.4,0.3,1,0.4,1.3,0.2c0.3,0.1,0.8-0.5,0.5-0.1l1.1-0.3l0,0.1c1.1,0.1,2.2-0.7,3.4,0.1c0.4-0.1,0.7-0.3,1.3-0.1l0.1,0.4
			c0.5-0.1,1.4,0.4,1.6,0c0.5,1,2.2,0.2,3,0.4l0-0.5c0.2,0,0.3-0.1,0.7-0.3l0.2-0.4c0.2-0.2,0.4-0.1,0.5,0c0.1,0.1,0.2,0.3,0.4,0.3
			c-0.2,0.2-0.3,0.1-0.2,0c-0.2,0.4-0.1,0.4,0.3,0.2c0.3-0.1,0.9-0.4,1.2-0.4c0,0.1-0.1,0.2-0.4,0.4c0.2,0,0.1,0.1-0.1,0.2
			c0,0,0,0,0,0c0,0,0,0,0,0c-0.1,0.1-0.3,0.2-0.4,0.3c0.2-0.1,0.3-0.2,0.4-0.3c0,0.1,0,0.1,0.1,0.2L63,70.6c0,0,0,0,0,0
			c-0.3,0.2,0.3,0,0.8-0.2c0.1,0,0.2,0.1,0.3,0.1c-0.5,0.2-0.5,0.2-0.5,0.3c0,0.1,0,0.2-0.5,0.3c0.4,0,0,0.6,0.8,0.9
			c-0.1,0-0.2,0-0.1-0.1c-0.2,0.2-0.4,0.3-0.3,0.6l-0.6-0.2l0.4,1c-0.5,0.2-0.8,0.3-1-0.3c0.2,1.3-0.2,0.9,0.1,2l-0.3-0.2
			c-0.1,0.3,0.1,1-0.3,1c-1,0.3-1.7,3-3.2,4.3c1.2,0.2-0.9,0.5-0.1,1c-0.3,0-0.5,0.1-0.6-0.3c-0.2,0.9-1,1-0.7,1.9
			c-0.3,0-0.3-0.4-0.5-0.4c0,0.1,0.1,0.4-0.1,0.4c-0.2,0-0.1-0.2-0.2-0.4c-0.4,0.9,0.3,1.3,1,1.8c-0.6,0.2-0.6,0.5-0.3,1
			c-0.3,0-0.7,0.1-0.5-0.4c-0.2,0.3-1.3,1.6-0.7,1.9c-0.2,0-0.3,0.4-0.2,0.5c-0.4,0.6-0.5,0.7-0.7,1.3l0.2-0.1
			c0.5,0.6-0.1,0.6-0.3,1.2l-0.1-0.1c-1.1,0.9,0,0.6-1.2,1.5l0.5,0.2c0.9,0.6-1.1,0.7-1.1,1.6l0.4-0.1c0.1,0.5-1.8,0.4-2.1,0.7
			c-0.1,0-0.1-0.2-0.1-0.3c-1.1,0.7,0.5,0.4,0.2,1.2c-0.4,0-0.7-0.6-1-0.1c-0.4,0.1,0.2,1.9-0.7,2.3c0.3,0,0.6,0,0.6,0.4
			c-0.2,0.6-1.6,0.9-1.1,1.8c-0.1,0-0.2,0-0.2,0c0,0.5-0.4,1.4-0.1,1.9c-0.8-0.2-1,0.5-1.1,1.2c-0.1,0.3-0.1,0.7-0.2,0.9
			c-0.1,0.2-0.2,0.2-0.6-0.1l-0.3,0.7l-0.1-0.1c-0.3,0.3-0.1,0.8,0,1.4c-0.1,0-0.1-0.3-0.2-0.4c-0.5,0.3-0.4,0.2-0.6,2.2l-0.1-0.8
			c0,0.3-0.2,0.2-0.3,0.2c-0.2-0.6-0.3-1-0.5-0.9c0-0.1,0-0.2,0.1-0.3c-0.2,0.2-0.4-0.8-0.4-1.2c-0.1-0.5-0.1-0.6-0.8,0
			c0,0-0.6-0.2-0.6-0.2c0.2,0.4,0,0.5-0.2,0.6c-0.2,0.1-0.5,0-0.5,0.3c-0.3-0.4-0.1-1.3,0.2-0.9l0,0.1c0.9-0.2-0.5-1.5,0.1-1.7
			c-1.2-2-1.9-4.3-3-6.3l-0.5,0.6l-0.4-0.7c0-0.3,0.4-0.5,0.6,0c0.2-0.5-0.8-0.6-0.9-0.6c-0.3-1.1,1-0.1,0.8-0.4L39,93.6l0,0.1
			c-0.4-0.2-0.7,0-1-0.6c-0.1-0.4,0.3-0.4,0.2-0.6c0,0,0-0.1-0.1-0.2l-0.4-0.9L37.3,92c-0.5-0.2-0.4-0.8-0.8-0.1
			c0.5-1.1-1.5-3.3-1.4-3.9c-0.7-0.3-1-0.8-1.3-1.5c0,0.2-0.5,0.6-0.8,0c1.3-0.5-0.1-1.3,0.5-2.2c-0.3,0.7-1-1.5-1.5-0.4
			c-0.2-0.5,0.4-0.3,0.5-0.8c-1.1-0.8-1.1-2.6-2-3.9c-0.2,0.1-0.3,0.4-0.7,0.3l0.3-1.2c-0.2-0.2-1,0.3-0.8-0.5
			C29.3,78,29.2,78.2,29,78c-0.8-3.1-3.7-5.1-3.9-8.6c-0.1,0.5-0.3,0.3-0.4,0c0,0.2-0.4,0.2-0.6,0.4L24,68.3c-0.7,0.1-0.7-1.2-1.4-1
			l0.3,0.3c-0.9-0.1-1.1,1.5-1.9,1.9c1,0.1-0.3,2,1.3,2.3c-0.1,0.3-0.4,0-0.5,0.2c0.5,0,0.7,0.2,0.8,0.8l-0.1,0
			c0.9,1.4,0.9,2.2,1.6,3.9l0.3-0.4c0.1,0.4,0.1,0.5,0,0.7c0.8,0-0.5-1,0.4-1c-0.6,0.9,1.4,2.4,0.6,3.2c0.3,0.5,0.4-0.4,0.7,0.1
			L26,79.7l0.4-0.1c0.1,0.4-0.1,0.7-0.3,0.9c0-0.1-0.2-0.2-0.3-0.3c0,0.6,0.8,1.2,0.8,1.4l-0.1-0.6c1.1,1.3,1.7,3.2,3,4.3l0.1-0.2
			c1,0.8,0.3,1,1.1,2l-0.1,0c0.3,0.1,0.6,0.4,0.8,0.7c-0.4-0.2-0.1,0.8-0.6,0.6c1,0.9,0.6,0.4,1.8,0.7l-0.2,0.4c0.4,0.1,0.6,0,1,0.5
			c-0.5-0.3-0.3,0.6-0.9,0.3c0,1.6,1.7,1.4,1,2.5c1.2,0-0.1-1.3,0.3-1.1c0.1-0.4,0.9,0.1,1.1,0.5c0.2,0.4-0.8,1.3-0.2,2.3
			c-0.1-0.1-0.1-0.1-0.2-0.2c0,0.5,0.7,0.5,0.6,1.2c0.7-0.1,0.3,0.6,1,0.3L35.4,95c0.5,0.4,1.5,0.4,1.6,1.5c-0.2,0-0.5-0.1-0.7-0.2
			c-0.1,0.4,0.4,0.4,0.3,0.8c-0.7,0.3-0.8-1-1.6-1.2c-0.1,0.4,1.1,0.7,0.2,0.9c1.2-0.2,0.4,1,1.5,1.3l-0.4,0.2
			c0.1,0.1,0.4,0.2,0.5,0.4l-0.7,0c0.8,0.3,0.2,1.3,0.7,1.6c-0.6-1.1,0.4-0.5,0.4-1.1c1.3,1-0.6,1.4,0.4,2.7
			c-0.2-0.2-0.2-0.9,0.2-0.7c0.1,0.3,0.1,0.8,0,1.1c0.6,0.9,0.3-0.4,0.8-0.1c-0.3,0.6,0.5,0.4,0.9,0.7l-0.4,0.2c0.4,1.3,1-0.2,1.3,1
			l-0.8-0.1l0.5,0.4l-0.5,0.2c0.8,0.6,0.9,1,1.3,2c0.1-0.5,0.7-0.6,1.1,0.1c0.1,0.8-0.4,0.2,0.2,1.1c-0.3,0.1-0.7,0.2-0.7-0.7
			c-0.1,0.1-0.3,0-0.5,0.1c0.1,0.9,0.8,1.6,1.1,2c-0.1-0.2-0.2-0.4-0.2-0.6c0,0,0.3,0.2,0.6,0.4c0.3,0.2,0.6,0.3,0.6,0.3
			c0.1,0.5-0.1,0.5-0.3,0.5c0.2,0.3,0.4,0.2,0.7,0.6c-0.2,0.5-0.3,1.1-0.8,0.6c0,0,1.1,1,1.1,1c0,0.4,0.4,1.6,0.3,1.7
			c0.4,0.9,0.9,1.1,1.3,1.5c0.2-0.6,0.4-1.1,0.7-1.4c0-0.2,0.1-0.5,0.2-0.8c0.3-0.5,0.6-0.8,1-1.3c0.3-0.5,0.7-1.1,0.9-2.2
			c0,0,0.8,0.1,0.8,0c0.3-0.7,0-0.6-0.2-0.7c-0.2-0.1-0.4-0.3,0-1.3c0.5-1.4,0.6,0.1,1-0.1c0.1-1,0.1-2.5,1.1-3.2
			C50.7,104.5,50.5,104.8,50.3,105.2z M54.4,96.9c0,0.2,0.1,0.6-0.2,0.6C53.8,97.1,54.1,97.1,54.4,96.9z M59.6,84.6
			c0.1,0.2-0.1,0.3-0.3,0.4C59.3,84.9,59.4,84.7,59.6,84.6z M49.3,69.7C49.3,69.7,49.3,69.7,49.3,69.7
			C49.7,69.9,49.6,69.8,49.3,69.7z M48.5,69.5c-0.1,0.1-0.1,0.1,0,0.2c0.1-0.1,0.2-0.1,0.4-0.1C48.8,69.5,48.7,69.4,48.5,69.5z
			 M37.9,92.5l0,0.2C37.6,92.5,37.8,92.5,37.9,92.5z"/>
		<path fill="#FFFFFF" d="M59.5,86.2c-0.1,0-0.2,0-0.3-0.1C59.3,86.3,59.4,86.3,59.5,86.2z"/>
		<path fill="#FFFFFF" d="M46.1,113.6C46.1,113.6,46.1,113.7,46.1,113.6c0,0.1,0,0.2,0,0.2L46.1,113.6z"/>
		<path fill="#FFFFFF" d="M60.7,65.4c0.2,0.1,0.3,0.2,0.3,0.2C61.1,65.6,61,65.5,60.7,65.4z"/>
		<path fill="#FFFFFF" d="M44.3,70.3l0.5-0.1c-0.2,0-0.3-0.1-0.5-0.2C44.4,70.2,44.5,70.3,44.3,70.3z"/>
		<path fill="#FFFFFF" d="M39.9,67.4c-0.1,0.1-0.2,0-0.2,0.1l0,0.2C40,67.6,40.2,67.5,39.9,67.4z"/>
		<path fill="#FFFFFF" d="M43.8,68.7c0-0.4-0.4-0.3-0.7-0.2c0,0,0,0,0.1,0C43.1,69.1,43.5,68.9,43.8,68.7z"/>
		<path fill="#FFFFFF" d="M43.1,68.6c-0.1,0-0.2,0-0.3,0C42.7,68.8,42.9,68.6,43.1,68.6z"/>
		<path fill="#FFFFFF" d="M47.5,69.8c-0.2-0.1-0.1,0.5-0.2,0.4C47.1,70.7,48.4,69.5,47.5,69.8z"/>
		<polygon fill="#FFFFFF" points="43.6,67.4 43.7,67.9 43.9,67.5 		"/>
		<path fill="#FFFFFF" d="M46.4,67.8l-0.6-0.1c0,0.1-0.1,0.1-0.2,0.2C46,67.8,46.4,67.9,46.4,67.8z"/>
		<path fill="#FFFFFF" d="M45.6,67.8c-0.2,0-0.4,0-0.5,0.1C45.3,67.9,45.5,67.9,45.6,67.8z"/>
		<polygon fill="#FFFFFF" points="44.3,67.3 44.5,67.4 44.9,67.4 		"/>
		<path fill="#FFFFFF" d="M52.4,67.9l0.6-0.1c0.1-0.2-0.1-0.3-0.3-0.2C52.6,67.6,52.4,67.7,52.4,67.9z"/>
		<path fill="#FFFFFF" d="M50.6,66.5c0.2,0.1,0.2,0.2,0.3,0.4l0-0.6L50.6,66.5z"/>
		<path fill="#FFFFFF" d="M52.4,66.3c0.1-0.2,0.9-0.5,0.1-0.5C52.4,66.1,51.8,66.2,52.4,66.3z"/>
		<path fill="#FFFFFF" d="M61.7,67.1l-0.2,0l-0.1,1c0,0,0.1-0.3,0.1-0.5C61.7,67.4,61.7,67.1,61.7,67.1z"/>
		<path fill="#FFFFFF" d="M70.3,68.1c0.9-1.2-0.8,0.1,0.2-1c-0.2-0.1-0.8,0.9-0.9,0.8C69.6,68.3,69.2,68.7,70.3,68.1z"/>
		<path fill="#FFFFFF" d="M69.6,67.8c0-0.1,0-0.1-0.1-0.2C69.5,67.8,69.5,67.8,69.6,67.8z"/>
		<polygon fill="#FFFFFF" points="24.1,67.3 24,66.8 23.9,67.2 		"/>
		<path fill="#FFFFFF" d="M23,66.9l0.5-0.4l-0.7,0C22.9,66.6,23,66.8,23,66.9z"/>
		<path fill="#FFFFFF" d="M56.2,96.4L56,96.3c-0.2,0-0.2,0.1-0.4,0.3L56.2,96.4z"/>
		<polygon fill="#FFFFFF" points="52.7,101.8 52.8,101.7 52.2,101.6 		"/>
		<path fill="#FFFFFF" d="M49.8,108.8c0.2-0.4,0.4-0.9,0.6-1.3C50,108.5,49.3,108.2,49.8,108.8z"/>
	</g>
</g>
<g>
	<circle fill="#FFFFFF" cx="44.5" cy="41.9" r="34.9"/>
	<g>
		<path fill="#FFFFFF" d="M81.8,41.6c0,0.3,0.4,0.2,0.5,0.3C82.1,41.3,81.7,41.6,81.8,41.6z"/>
		<polygon fill="#FFFFFF" points="80.3,36.1 80.5,36.1 80,35.4 		"/>
		<path fill="#FFFFFF" d="M79.2,31c-0.5,0.7,0.6,1.8,0.6,2.8l-0.1,0.2l0.7,0.3C79.9,33.1,79.2,31.8,79.2,31z"/>
		<path fill="#FFFFFF" d="M79.7,27.8c-0.2,0.3-0.4-0.5,0.2,0.7c0-0.1,0-0.1,0-0.1C79.8,28.2,79.7,28.1,79.7,27.8z"/>
		<path fill="#FFFFFF" d="M79.8,28.3C80,28.9,79.9,27.9,79.8,28.3L79.8,28.3z"/>
		<path fill="#FFFFFF" d="M78.7,26l0.6,0.6c0.1-0.2-0.2-0.8,0-0.7C78.8,25.2,78.7,25.5,78.7,26z"/>
		<path fill="#FFFFFF" d="M77.9,25.6l0.3,0.3C78.2,25.8,78.2,25.7,77.9,25.6z"/>
		<path fill="#FFFFFF" d="M78.7,26.5l-0.6-0.6c-0.1,0.1-0.3,0.3,0.2,0.3C78.2,26.2,78.4,26.3,78.7,26.5z"/>
		<path fill="#FFFFFF" d="M78.8,27c0,0.4,0.1,1-0.4,0.4C79,28.6,79.4,28.2,78.8,27z"/>
		<path fill="#FFFFFF" d="M78.4,31c0,0,0,0.1,0,0.3c0,0.1,0,0.3,0,0.3l0.3,0.4C78.5,31.7,78.6,30.9,78.4,31z"/>
		<path fill="#FFFFFF" d="M76.7,21.7c-0.2,0-0.2,0.4-0.3,0.6l0.4,0.4C76.8,22.3,76.6,21.8,76.7,21.7z"/>
		<path fill="#FFFFFF" d="M76.4,22.3l-0.6-0.6C76.1,22.3,76.3,22.4,76.4,22.3z"/>
		<polygon fill="#FFFFFF" points="77.1,25.8 78.2,26.8 77,25.6 		"/>
		<polygon fill="#FFFFFF" points="75,19 75.5,19.2 74.6,18.9 		"/>
		<path fill="#FFFFFF" d="M73.6,17.4c0.5,0.1,0.1-0.7,0.4-0.5c-0.4-0.4-1-0.6-1.4-0.8C73,16.4,73.4,16.8,73.6,17.4z"/>
		<path fill="#FFFFFF" d="M71.9,15.8c0.2,0.1,0.5,0.2,0.7,0.3C72.4,16,72.2,15.9,71.9,15.8z"/>
		<path fill="#FFFFFF" d="M75,20.5c0-0.1,0.2-0.3,0-0.8l-0.2,0.5C74.9,20.3,75,20.4,75,20.5z"/>
		<path fill="#FFFFFF" d="M74.8,20.3L74.8,20.3c-0.2-0.3-0.3-0.5-0.4-0.6C74.5,19.7,74.6,19.9,74.8,20.3z"/>
		<path fill="#FFFFFF" d="M75.1,20.6C75.1,20.5,75.1,20.5,75.1,20.6C75,20.6,75,20.6,75.1,20.6z"/>
		<path fill="#FFFFFF" d="M76.5,23.7c-0.5-0.3-1.2-1-1,0C75.9,23.9,75.8,23.3,76.5,23.7z"/>
		<path fill="#FFFFFF" d="M74.9,21.2c0,0,0.4,0.8,0.4,0.8c0.1-0.1,0.1-0.3,0.4-0.2C75.6,21.8,74.9,21.2,74.9,21.2z"/>
		<polygon fill="#FFFFFF" points="74.5,20.9 74.9,21.2 74.7,20.9 		"/>
		<path fill="#FFFFFF" d="M72.6,17.2c-0.4-0.2-0.7-0.4-1-0.8c0.3,0.4,0.6,0.8,0.9,1.2C72.7,17.6,73,17.6,72.6,17.2z"/>
		<path fill="#FFFFFF" d="M73.7,18.7C73.7,18.6,73.7,18.6,73.7,18.7C73.6,18.7,73.7,18.7,73.7,18.7z"/>
		<polygon fill="#FFFFFF" points="68.3,13.3 68.3,13.4 68.4,13.3 		"/>
		<path fill="#FFFFFF" d="M72.5,17.7c0.2,0.3,0.4,0.4,0.7,0.5c-0.2-0.2-0.4-0.4-0.7-0.6C72.4,17.6,72.4,17.6,72.5,17.7z"/>
		<path fill="#FFFFFF" d="M70.9,15c0.1,0.2,0.2,0.4,0.3,0.6C71.1,15.4,71,15,70.9,15z"/>
		<path fill="#FFFFFF" d="M73.7,18.4C73.7,18.4,73.7,18.5,73.7,18.4C73.7,18.3,73.7,18.4,73.7,18.4z"/>
		<path fill="#FFFFFF" d="M73.7,18.4c-0.2-0.1-0.3-0.2-0.5-0.2c0.2,0.2,0.3,0.3,0.5,0.4C73.6,18.6,73.7,18.5,73.7,18.4z"/>
		<path fill="#FFFFFF" d="M65.5,14.6c0.3-0.3,1.3,0,1.6,0.8c0.8,0.3,1.3-1,1.2-2.1c-0.1,0.1-0.2,0.2-1-0.1c0.1,0.3,1.1,1.6,0.3,1.4
			c-0.9-0.6-0.6-0.7-0.9-1.2c0.1,0.7-1.5-0.3-1.8,0.5l0.9,0.4C65.8,14.4,65.4,14.3,65.5,14.6z"/>
		<path fill="#FFFFFF" d="M69.5,14.5l0.3,0.2c-0.3-0.3-0.4-0.6-0.5-1.2c-0.6-0.3-0.8-0.2-0.9-0.1l1.3,1.2L69.5,14.5z"/>
		<path fill="#FFFFFF" d="M70.9,15.8c-0.5,0.1-1.2-0.3-1.2,0.3c0.7,0.7,0.7,0.3,1.3,0.6C69.9,15.5,71.5,16.9,70.9,15.8
			c0.2,0.2,0.5,0.4,0.7,0.6c-0.2-0.3-0.3-0.5-0.4-0.8c0,0,0,0,0,0l0,0l0,0c0,0.1,0,0.1,0,0c0,0,0,0,0,0C71.1,15.7,71,15.8,70.9,15.8
			c-0.3-0.4,0-0.1,0.2-0.1c0,0,0,0,0.1,0l0,0c0,0-1.4-1-1.4-1C70,15,70.4,15.2,70.9,15.8z"/>
		<path fill="#FFFFFF" d="M74.2,23.5C74.3,23.4,74.3,23.4,74.2,23.5C74.2,23.3,74.2,23.3,74.2,23.5z"/>
		<path fill="#FFFFFF" d="M74.1,22.8c0.1,0.1,0.3,0.1,0.5,0.4c0.1,0.3-0.2,0.1-0.3,0.2c0.2,0.1,0.7,0.5,0.5-0.2l-0.1-0.1
			c-0.2-0.6-0.2-1.6-0.1-1.6C74.4,21.9,74.2,22.2,74.1,22.8z"/>
		<path fill="#FFFFFF" d="M72.6,19.3c0,0-0.2-0.2-0.5-0.5c-0.3-0.2-0.5-0.4-0.5-0.4l0.2,0.7l0.1-0.2C72.3,19.6,72.4,19.3,72.6,19.3z
			"/>
		<path fill="#FFFFFF" d="M68.3,13l0.4-0.2c0,0-1,0-1,0L68.3,13z"/>
		<polygon fill="#FFFFFF" points="66.8,11.9 67.1,11.7 66.6,11.6 		"/>
		<path fill="#FFFFFF" d="M16.5,58.4l0.3,0.2C16.7,58.5,16.6,58.5,16.5,58.4z"/>
		<path fill="#FFFFFF" d="M15.3,56.1l-0.2,0C15.3,56.2,15.4,56.2,15.3,56.1z"/>
		<path fill="#FFFFFF" d="M24.8,10.1c-0.7,0-1.6-0.1-1.3,0.2l0.4,0.3C24.2,10.3,24.5,10.2,24.8,10.1z"/>
		<path fill="#FFFFFF" d="M10.4,35l0.2-0.1c-0.1-0.2-0.2-0.3-0.3-0.5C10.3,34.6,10.3,34.8,10.4,35z"/>
		<path fill="#FFFFFF" d="M12.1,35.7l-0.4,0.6C11.8,36.3,11.9,36,12.1,35.7z"/>
		<path fill="#FFFFFF" d="M26.4,68.3c0,0,0.1,0,0.3-0.1c0.1,0,0.3-0.1,0.3-0.1C26.4,67.8,26.5,68.1,26.4,68.3z"/>
		<path fill="#FFFFFF" d="M49.8,5c-0.5-0.2-0.9-0.4-1.2-0.5C49.1,4.9,49.6,5.4,49.8,5z"/>
		<path fill="#FFFFFF" d="M12,59.8c0.2,0.2,0.3,0.2,0.4,0.2C12.2,59.8,12,59.7,12,59.8z"/>
		<path fill="#FFFFFF" d="M47,4.5c0.1,0,0.2,0.1,0.3,0.1c0.4,0,0.8-0.1,1.2,0C48.1,4.3,47.6,4.2,47,4.5z"/>
		<path fill="#FFFFFF" d="M71.3,60c0,0,0.1-0.1,0.1-0.1C71.4,59.9,71.4,59.9,71.3,60z"/>
		<path fill="#FFFFFF" d="M80.9,46.8c0,0.2,0,0.4-0.1,0.7C80.9,47.3,80.9,47.1,80.9,46.8z"/>
		<path fill="#FFFFFF" d="M60.7,8C61,8.1,60.7,8,60.7,8L60.7,8z"/>
		<path fill="#FFFFFF" d="M61.5,10.3c-0.1,0-0.2,0-0.2,0.1C61.4,10.3,61.5,10.3,61.5,10.3z"/>
		<path fill="#FFFFFF" d="M43.3,7.1C43.3,7.1,43.3,7.1,43.3,7.1C43.4,7.2,43.3,7.2,43.3,7.1z"/>
		<path fill="#FFFFFF" d="M61.1,8.4c-0.1-0.1-0.2-0.2-0.4-0.3C60.8,8.1,60.9,8.2,61.1,8.4z"/>
		<path fill="#FFFFFF" d="M61.1,8.2c0.1,0.1,0.2,0.1,0.3,0.2C61.5,8.3,61.5,8.3,61.1,8.2z"/>
		<path fill="#FFFFFF" d="M60.2,7.8c0.2,0.1,0.4,0.2,0.5,0.3C60.7,8,60.6,8,60.7,8C60.6,7.9,60.4,7.9,60.2,7.8z"/>
		<path fill="#FFFFFF" d="M48.9,75.1C48.9,75.1,48.9,75.1,48.9,75.1C49.3,74.9,49.1,75,48.9,75.1z"/>
		<path fill="#FFFFFF" d="M20.4,19.5C20.4,19.5,20.4,19.5,20.4,19.5C20.4,19.5,20.4,19.5,20.4,19.5L20.4,19.5z"/>
		<path fill="#FFFFFF" d="M19.8,20.7c-0.1-0.7,0.2-0.9,0.5-1.1L19.2,19c0,0,0.2,0.4,0.3,0.8C19.7,20.2,19.8,20.7,19.8,20.7z"/>
		<path fill="#FFFFFF" d="M20.3,63.3L20,62.4c1.2,0.3,1.5,1,1.4,0.1c-0.5,0.4-1.1-0.1-1.7-0.8c-0.5-0.6-1-1.2-1.6-0.9L18,60.2
			c0.1,0.1,0.2,0.1,0.2,0.2c-0.1-1.2-1.3-0.1-1.9-1.4c-0.2-0.5-0.2-0.9,0.1-0.7l-0.9-0.8c-0.1-0.3,0.1-0.3,0.2,0
			c0,0-0.1-0.1-0.1-0.2c-0.1-0.1-0.2-0.3-0.3-0.5c-0.2-0.4-0.4-0.7-0.4-0.7l0,0c-0.3-0.1-0.8-0.5-1.1-0.7c0-0.5,0.2,0.1,0.3,0
			c0,0-0.7-0.7-0.7-0.7c0.1-0.2,0.3-0.2,0.5-0.1c0.2,0.2,0.4,0.4,0.5,0.7c0.4-0.7,0.3-0.8,0-1c-0.2-0.2-0.6-0.6-0.6-1.6l0.5,0.7
			c0.5-0.8,0-1.3,0.2-2.3c-0.2,0.3-0.5,2.2-1.1,1.4c0-0.3-0.1-0.7-0.5-1.1c0.5-0.1,0.2-0.6,0-1.2l0.6-0.1c-0.4-0.6-0.7-0.5-1-0.8
			c-0.1-0.8,0.3-1,0.7-1.3c-0.1-1.2-0.7,1-1-0.4c0-0.5,0-1-0.2-1.4c-0.2-0.5-0.4-0.9-0.6-1.6c0.2-0.8,0.4,0.1,0.6-0.2l-0.5-0.6
			c0-0.2,0.2-0.1,0.2-0.1c-0.2-0.5-0.6,0-0.9-0.9c-0.3-0.1-0.1-0.6,0.1-1.1c0.3-0.6,0.5-1.2,0.2-1.8c0.2-0.3,0.4,0.2,0.6,0.1
			c-0.4-1.5-0.3-1.3-0.9-2.6l0.6-1c-0.6,0.7-1-0.4-1.3-1.4c-0.3,0.2-0.5,0.4-0.6,0.6c0,0,0-0.4-0.1-0.8c0-0.4,0-0.8,0-0.8
			c0.1-0.2,0.3,0,0.5,0.3c0-0.1-0.1-0.2-0.1-0.3c0.4-0.5,0.7-0.1,0.9,0.3l-0.5,0.4c0.3,0.4,0.7,0.8,1.1,0.8
			c-0.1-0.1-0.1-0.3-0.1-0.5c0.1,0.1,0.2,0.2,0.2,0.2c0.1,0-0.1-0.2-0.2-0.5l0.8-0.2l-0.3-0.1L13,33c-0.1-0.4-0.2-0.7-0.3-1.1
			c-0.1-0.4-0.2-0.7-0.2-1.1c-0.1-0.8-0.2-1.7,0.1-2.7c0.3,0.7,0.7,0.4,1.3,0.7c-0.8,0.3-0.3,1.6-0.8,2.5c0.3-0.5,0.5-0.3,0.5-0.1
			l0.1-2c0.5,0.2,0.5-0.2,0.9-0.6c-1.1-0.1,0-1.5,0.1-2.4c0.3,0.1,0.5,0.4,0.1,1.2c1.1-0.6-0.5-1.8,0.6-2.3
			c-0.1,0.2-0.2,0.3-0.1,0.4c0-0.6,0.9-1.6,1-1.2l-0.1,0.2c0.2-0.3,0.5-0.7,0.7-1.2c0.3-0.4,0.6-0.9,0.8-1.3
			c0.5-0.9,0.8-1.7,0.6-2.1c0.1,0.1,0.7,0.8,0.7,1c0,0,0-0.3-0.1-0.6c0-0.4-0.1-0.9-0.1-1.3c-0.1-1-0.1-2-0.1-2
			c0.4,0.7,2.2,1.2,1.7,2.4c0.3-0.2,0.7-0.5,1.1-1.2c-0.3,0.1-1.2-0.3-1-0.6c1.3-0.1,0.8-0.1,2.1-0.4c-0.4,0.1-0.8-1-0.4-1.4
			c0,0.2,0.8,0.8,0.7,1.1c0,0,0.1-0.5,0.2-0.9c0.1-0.5,0.2-0.9,0.2-0.9c-0.2,0.4,0.5,0.8,1,0.8c-0.3-0.1,1-0.7,1.3-1l-0.6,0.2
			c1.4-0.9,0.4-2.2,1.9-3.1c-0.1,0.3,0.3,1.5,1.1,1.2c0-0.3,0-1.2,0.2-2c0.2-0.8,0.6-1.8,1.2-2.3l0.4,0.2c0,0,0.2-0.2,0.5-0.4
			c0.2-0.2,0.5-0.4,0.5-0.4c-0.2,0.5-0.6,1.5-0.9,2.4c-0.4,0.9-0.8,1.8-1.1,2.3c0.7,0,0.3,0.3,1.1-0.2c0.4,0.1-0.2,0.6-0.5,0.8
			l2-0.7c-0.2-0.3,0.1-0.6,0.4-0.9c0.3-0.3,0.7-0.6,0.5-0.8c0,0-0.1,0.1-0.3,0.2c-0.2,0.1-0.4,0.3-0.6,0.5c-0.4,0.4-0.9,0.8-0.9,0.8
			c-0.2-0.3-0.1-0.9,0.2-1.4c0.3-0.6,0.9-1.1,1.7-1.3c0.5,0.1,0.1,1.2,0.3,1.4c0.1-0.3,1.2-0.9,1.4-0.8l-0.5,0.6
			c0.4,0,0.7-0.4,1-0.6c0.3-0.3,0.6-0.5,1.2-0.3c0.4,0,1.2,0.6,1.2,0.2c-0.7-0.6-1.4-2.9-1.2-3.5c0.1,0,0.6,0.1,1.2,0.1
			c0.6,0.1,1.2,0.3,1.4,0.4c0.7,0.5-0.6,1.5,0,2c0-0.2,0.3-0.5,0.4-0.5c0.4,0.1-0.1,0.6,0.7,0.4c0-0.7,1.6-0.2,0.3-0.6
			c0.8-0.3,0.9,0,1.8-0.1C41.1,8,42.2,6.9,43,6.6c0,0.2,0.2,0.4,0.2,0.5c0.4,0,0.8,0,1.1,0c0.3,0,0.7,0.1,1,0.2
			c0.6,0.1,1.2,0.2,2,0.3c0.1,0.2,0.9,0.4,0.5,0.7C48.1,8.2,48.4,8,48.8,8c0.8,0.7-1.1-0.1-0.4,0.7c0.1-0.4,1.3-0.4,2-0.5
			c-0.1-0.6-1.5-0.4-2.2-0.2c0.1-0.8,1.4-1.5,3.1-1.7c1.4,0,0.5,0.7,0.7,0.6c1.2,0.4,1.8,0.2,2.4,0c0.6-0.2,1.1-0.3,2,0.3
			c0.6,0.8-0.3,1-0.3,1.5c-0.5-0.1-0.9-0.3-1.2-0.5c-0.3-0.2-0.6-0.4-1-0.5l0.8,0.5c-0.4,0.1-1.1,0-1.4-0.2c0.5,0.6,4,1.3,5.5,2.5
			c0.4,0,1,0.1,0.8-0.3L59,10.1c-0.3-0.6,1.3,0,0.7-0.6c0.4,0,0.9,0.1,1.4,0.2c0.2,0,0.5,0.1,0.7,0.2c0.2,0.1,0.5,0.3,0.7,0.5
			L62.4,11c0.1-0.2-0.5-0.7-0.8-0.7c0.6,0,1.1,1.6,2,1.2L63,10.7c0.9,0.2,2.2,0.1,2.9,1c0-0.8-0.2-0.1-0.5-1.1
			c0.1,1.1-2.3-1.5-1.9-0.1c-0.3-1.1-0.9-1-1.5-2.1c-0.1,0.2,0.1,0.5-0.6,0c-0.1,0-0.2,0.1-0.3,0.1c0,0,0,0,0,0l0,0c0,0-0.1,0,0,0
			c0.2,0.2,0.3,0.3,0.3,0.5c-0.6,0.2-1.9-0.4-2.4-0.4c-0.4-0.3,0.3-0.1,0.1-0.4c0,0-0.2,0-0.4,0c-0.2,0-0.4,0-0.4,0
			c0.1-0.4-1-1.2,0.2-1l-1.1-0.4c-0.5-0.5-1.4-0.9-2-0.9C55,5.6,54.1,6,54.6,5.8l-1.8-0.2l0-0.1c-0.8-0.3-1.8-0.2-2.7-0.3
			c-0.9,0-1.9-0.2-2.8-0.7c-0.6,0.1-1.2,0.2-2.2,0l-0.2-0.4c-0.8,0.1-2.3-0.3-2.6,0.1c-0.2-0.3-0.6-0.4-1-0.4
			c-0.4-0.1-0.9,0-1.4,0.1c-1,0.2-2,0.5-2.7,0.5l0,0.5c-0.9,0.1-1.7,0.5-2.8,1l0.2,0.4c-0.8,0.5-2.5,0.4-3.9,1
			c0-0.2,0.4-0.3,0.7-0.3c-0.5-0.1-1,0-1.5,0.2c-0.4,0.2-0.8,0.5-1.2,0.8c-0.8,0.6-1.5,1.2-2.4,1.3c-0.3,0.4-0.6,0.5-0.9,0.5
			c0,0,0.1,0,0.1-0.1c0,0-0.1,0-0.1,0.1c-0.2,0-0.4,0.1-0.6,0.1c0.2,0,0.4,0,0.5,0c-0.3,0.2-0.7,0.5-1,0.8l-0.4-0.3
			c0,0-0.1,0-0.1,0.1c-0.5,0.1-0.2,0.4,0.2,0.6c-0.2,0.2-0.3,0.4-0.3,0.6c-0.8-0.4-0.8,0.9-1.7,0.6c0,0.3-0.4,0.7-0.8,1.1
			c-0.4,0.5-0.7,1-0.5,1.4c-0.1-0.1-0.2,0,0-0.2c-0.4,0.3-0.9,0.6-1.1,1L19,15.5c0,0-0.1,0.3-0.1,0.7c0,0.4-0.1,0.7-0.1,0.7
			c-0.7,0.2-1.1,0.3-1-0.5c-0.6,1.7-0.7,1.2-1.1,2.7l-0.3-0.3c-0.3,0.4-0.4,1.4-0.8,1.4c-1.4,0.4-3.2,4.5-5,6.9
			c0.7,0,0.4,0.2,0.1,0.6c-0.3,0.3-0.7,0.7-0.3,1c-0.3,0.1-0.6,0.4-0.7-0.1c-0.2,1.5-1.2,2-0.7,3.2c-0.3,0.1-0.3-0.4-0.5-0.3
			c0,0.1,0.1,0.5-0.1,0.6c-0.2,0.1-0.2-0.3-0.2-0.5c-0.3,1.5,0.4,1.9,1.2,2.2C9.1,34,9,34.3,8.9,34.6c0,0.3,0.1,0.5,0.3,0.8
			C9,35.6,8.6,36,8.7,35.1c-0.1,0.5-0.9,3.2-0.2,3.3c-0.2,0.1-0.1,0.7,0,0.9c-0.1,1.2-0.2,1.3-0.2,2.4l0.1-0.3
			c0.7,0.5,0.2,1,0.3,1.9l-0.1,0c-0.2,1.1-0.1,1.3-0.1,1.5c0.1,0.2,0.1,0.4-0.1,1.5l0.5-0.2c1.1,0.1-0.3,1.9,0.3,3.1l0.2-0.5
			c0.4,0.6-0.9,2.1-0.9,2.8c0,0.2-0.2-0.2-0.3-0.4c-0.1,1.9,0.7,0.1,1.1,1.3c-0.3,0.3-0.9-0.1-0.7,0.8c-0.1,0.5,1.9,2.1,1.8,3.5
			c0.1-0.4,0.2-0.7,0.7-0.2c0.5,0.8,0.2,2.8,1.4,3.1c0,0.1,0,0.2-0.1,0.2c0.6,0.5,1.5,1.8,2.1,2c-0.5,0.7,0.3,1.5,1.1,2.2
			c0.8,0.7,1.6,1.2,1,1.7l1.6,1.6l-0.2,0.1c0.9,1.1,1.6,1.1,2.2,1.2c0.2,0.3-0.1,0.2-0.2,0.3c1.3,1.6,1.6,1.7,3.4,2.1l-0.1,0.5
			c0.3,0,0.7,0.6,1.5,1.2c0.7,0.6,1.6,1.4,2.7,1.6c0,0-0.1,0.1-0.3,0.1c1.2,0.2,2.2,1.2,3.3,1.8c1.1,0.6,2,1,2.7,0.3
			c0,0,0.4,0,0.8,0c0.4,0,0.8,0,0.8,0c-1.8-0.6,0.5-0.7-0.2-1.2c0.7,0.1,1.7,1,0.8,0.9l-0.1-0.1c-0.6,0.8,2.2,0.9,2.1,1.5
			c3.8,0.7,7.5,1.3,11.2,1c0,0-0.1-0.2-0.2-0.3C48.2,78.1,48,78,48,78c0,0,1.2-0.1,1.2-0.1c0.3,0.1,0.5,0.5-0.4,0.6
			c0.5,0.3,1.5-0.6,1.4-0.7c1.8,0-0.5,0.9,0,0.9l0.7-0.2l-0.2-0.1c0.5-0.4,0.5-0.6,1.6-0.9c0.7,0,0.4,0.4,0.7,0.3
			c0,0.1,0.1,0.1,0.4-0.1l1.6-0.3L54.4,77c0.6-0.4,1.4-0.4,0.6-0.8c0.7,0.3,2.1-0.1,3.4-0.6c1.3-0.6,2.5-1.3,2.9-1.3
			c0.7-0.8,1.5-1.3,2.5-1.9c-0.3,0.1-0.8-0.4,0.1-0.9c0.2,0.6,0.7,0.6,1.3,0.3c0.6-0.3,1.2-0.7,1.8-0.6c-0.5,0,0.1-0.5,0.6-1
			c0.5-0.5,0.9-1,0.1-0.9c0.7-0.5,0.4,0.3,1.1,0.1c0.6-0.9,1.5-1.5,2.4-2.4c0.9-0.8,1.9-1.6,2.6-2.7c-0.1-0.1-0.6,0-0.5-0.6l1.5-0.6
			c0.2-0.5-0.5-0.9,0.5-1.4c-0.2,0-0.5,0.1-0.4-0.2c1.7-1.9,2.8-4.2,3.6-6.6c0.4-1.2,0.9-2.4,1.2-3.6c0.2-0.6,0.4-1.2,0.7-1.8
			c0.3-0.6,0.5-1.2,0.8-1.8c-0.4,0.6-0.4,0.2-0.3-0.4c-0.1,0.3-0.4-0.1-0.7,0c0,0,0.2-0.5,0.5-1c0.1-0.3,0.2-0.5,0.3-0.7
			c0.1-0.2,0.1-0.3,0.1-0.3c-0.6-0.4,0.1-2.3-0.5-2.5l0.1,0.7c-0.7-0.9-1.7,1.1-2.7,0.9c0.2,0.2,0.2,0.5,0.1,0.8
			c-0.1,0.3-0.3,0.6-0.5,0.9c-0.4,0.6-0.7,1.3-0.2,2.2c-0.2,0.3-0.3-0.3-0.5-0.2c0.4,0.5,0.3,0.9-0.1,1.7l-0.1-0.1
			c-0.3,1.2-0.5,2-0.9,2.8c-0.2,0.4-0.4,0.8-0.7,1.2c-0.2,0.4-0.5,0.9-0.9,1.5l0.5,0c-0.3,0.5-0.5,0.5-0.7,0.7
			c0.4,0.9,0.7-1.4,1.2-0.6c-0.6,0.2-1,1.1-1.5,1.9c-0.5,0.9-1,1.6-1.6,1.6c-0.5,0.7,0.6,0.1,0.1,0.8l-0.4,0l0.2,0.4
			c-0.3,0.5-0.9,0.5-1.1,0.3c0.1-0.1,0.2-0.4,0.2-0.5c-0.7,0.4-1.1,1.7-1.4,1.9l0.6-0.6c-0.3,0.5-0.6,1-1,1.5
			c-0.4,0.5-0.9,1-1.3,1.5L67.6,65c-0.2,0.2-0.5,0.5-0.7,0.7c-0.4,0.5-0.8,0.9-1.2,1.4l0.3,0.1c-1.1,1.5-1.3,0.7-2.7,2l0-0.1
			c-0.2,0.4-0.6,0.8-1,1c0.3-0.5-1.1,0-0.7-0.5c-1.4,1.4-0.6,0.8-1.3,2.2l-0.4-0.2c-0.2,0.5-0.2,0.7-1.1,1.2c0.6-0.6-0.8-0.2-0.2-1
			c-0.5,0-1,0.2-1.3,0.4c-0.4,0.2-0.6,0.4-0.9,0.5c-0.5,0.4-0.9,0.6-1.6,0.2c-0.6,1.3,1.9-0.1,1.4,0.3c0.5,0.2-0.5,1-1.1,1.1
			c-0.6,0.2-1.5-0.9-3-0.5c0.2,0,0.2-0.1,0.3-0.1c-0.6-0.1-1.1,0.7-1.9,0.4c-0.3,0.7-1,0.1-1,0.9l1.5-0.4c-0.8,0.3-1.5,1.4-3,1.1
			c0.1-0.2,0.5-0.4,0.8-0.6c-0.4-0.2-0.8,0.3-1.2,0.1c0-0.8,1.8-0.4,2.6-1.2c-0.5-0.3-1.6,0.8-1.3-0.1c-0.2,0.6-0.7,0.6-1.1,0.6
			c-0.5,0-1-0.1-1.5,0.3l0-0.5c-0.2,0.1-0.5,0.3-0.8,0.3l0.5-0.6c-0.9,0.6-1.7-0.3-2.5-0.1c0.9,0,1,0.2,0.9,0.4
			c0,0.2-0.2,0.4,0.2,0.6c-2.2,0.6-1.2-1.3-3.6-1.2c0.3,0,1.2,0.3,0.7,0.5c-0.5-0.1-1-0.4-1.3-0.7c-1.6-0.1,0.2,0.5-0.5,0.7
			c-0.5-0.7-0.8,0.1-1.6,0.2l0.1-0.5c-1.8-0.7-0.7,0.9-2.3,0.1l0.8-0.5l-0.9,0l0.3-0.5c-1,0.1-1.3,0-2.1-0.4
			c0.1,0.4-0.4,0.8-1.2,0.5c-0.4-0.5,0.5-0.3-0.7-0.7c0.4-0.2,0.8-0.4,1.1,0.1c0.1-0.1,0.3-0.2,0.4-0.3c-0.4-0.5-1.4-0.6-1.8-0.7
			c0.1,0.1,0.3,0.2,0.4,0.3c0,0-0.5,0-0.9,0c-0.4,0-0.9-0.1-0.9-0.1c-0.2-0.3,0.1-0.3,0.3-0.4c-0.3-0.1-0.6,0-1.1-0.2
			c0.3-0.3,0.4-0.7,1.1-0.5l-1.6-0.3c0-0.2-0.5-0.8-0.3-0.8c-0.6-0.7-2.2-0.4-3-1.3c-0.1,0-0.2,0-0.5-0.1c-0.4-0.4-0.7-0.8-1.1-1.2
			c-0.2-0.2-0.4-0.4-0.7-0.5c-0.2-0.2-0.5-0.3-0.8-0.4l-0.1-1c-0.9-0.6,0.1,1.3-1.3,0.4c-1.1-0.7,0.1-0.7-0.1-1.2
			c-0.6-0.2-1.9-0.5-2.2-1.7C19.9,62.8,20,63.1,20.3,63.3z M13.6,52.6c0.2,0.2,0.6,0.5,0.4,0.8C13.5,53.4,13.6,53.1,13.6,52.6z
			 M11.8,33.3c0.1,0.2,0,0.5-0.3,0.8C11.5,33.9,11.6,33.6,11.8,33.3z M56.6,6.7C56.6,6.7,56.6,6.7,56.6,6.7
			C56,6.3,56.2,6.5,56.6,6.7z M57.7,7.4c0.1,0,0.2-0.1,0.1-0.2c-0.1,0.1-0.4,0-0.7-0.2C57.2,7.2,57.3,7.3,57.7,7.4z M53.3,77.6
			L53,77.5C53.5,77.2,53.4,77.4,53.3,77.6z"/>
		<path fill="#FFFFFF" d="M11.9,35.7c-0.1,0.1-0.2,0.1-0.3,0.1C11.7,35.8,11.8,35.8,11.9,35.7z"/>
		<path fill="#FFFFFF" d="M26.3,68.3L26.3,68.3c0.1,0,0.1,0,0.1,0L26.3,68.3z"/>
		<path fill="#FFFFFF" d="M38.8,9.5c-0.2,0-0.4-0.1-0.5-0.2C38.3,9.4,38.4,9.5,38.8,9.5z"/>
		<path fill="#FFFFFF" d="M64.3,9.7l-0.8-0.3c0.4,0.2,0.4,0.4,0.6,0.5C64.1,9.8,64.1,9.6,64.3,9.7z"/>
		<path fill="#FFFFFF" d="M68.1,16.3c0.1,0,0.2,0.2,0.3,0.2l0.1-0.2C68.2,16,67.8,15.9,68.1,16.3z"/>
		<path fill="#FFFFFF" d="M64.1,11.5c-0.2,0.4,0.4,0.5,0.8,0.8c0,0-0.1,0-0.1-0.1C65.3,11.8,64.7,11.6,64.1,11.5z"/>
		<path fill="#FFFFFF" d="M65.1,12.3c0.2,0.1,0.3,0.2,0.4,0.3C65.7,12.5,65.3,12.5,65.1,12.3z"/>
		<path fill="#FFFFFF" d="M59.4,7.7c0.2,0.2,0.4-0.4,0.4-0.2C60.3,7.2,57.9,7.3,59.4,7.7z"/>
		<polygon fill="#FFFFFF" points="63.7,12.8 63.9,12.3 63.4,12.5 		"/>
		<path fill="#FFFFFF" d="M60.2,10.3l0.7,0.5c0-0.1,0.2-0.1,0.3,0C60.7,10.6,60.2,10.2,60.2,10.3z"/>
		<path fill="#FFFFFF" d="M61.2,10.8c0.2,0.1,0.5,0.3,0.7,0.3C61.7,11,61.4,10.9,61.2,10.8z"/>
		<polygon fill="#FFFFFF" points="62.6,12.3 62.5,12.1 62,11.7 		"/>
		<path fill="#FFFFFF" d="M51.2,7.2l-1,0c-0.1,0.2,0.1,0.3,0.5,0.3C51,7.4,51.4,7.4,51.2,7.2z"/>
		<path fill="#FFFFFF" d="M53.7,9.2c-0.2-0.2-0.2-0.3-0.3-0.5l-0.2,0.6L53.7,9.2z"/>
		<path fill="#FFFFFF" d="M51.1,8.7c-0.1,0.2-1.4,0.3-0.3,0.4C50.9,9,51.9,9,51.1,8.7z"/>
		<polygon fill="#FFFFFF" points="37.1,8.1 37.3,8 37,7 		"/>
		<path fill="#FFFFFF" d="M26.9,15c1-0.3-0.1-0.7,0.8-0.9c0.1-0.3-0.8,0.2-0.7-0.1C26.6,14.5,26.3,14.5,26.9,15z"/>
		<path fill="#FFFFFF" d="M27,13.9c0.1-0.1,0.1-0.2,0.2-0.3C27.1,13.8,27.1,13.9,27,13.9z"/>
		<polygon fill="#FFFFFF" points="81.7,44 81.9,43.2 81.6,43.7 		"/>
		<path fill="#FFFFFF" d="M81,42.5l0.7-0.2l-0.6-0.5C81.1,42,81.2,42.4,81,42.5z"/>
		<path fill="#FFFFFF" d="M14.3,50.5l-0.2,0c-0.1,0.1-0.1,0.3-0.1,0.6L14.3,50.5z"/>
		<polygon fill="#FFFFFF" points="17.5,58.8 17.4,58.7 17.1,59.2 		"/>
		<path fill="#FFFFFF" d="M22.8,64.1c-0.2-0.2-0.5-0.4-0.7-0.6C22.5,63.9,22.3,64.7,22.8,64.1z"/>
	</g>
</g>
<g>
	<circle fill="#231F20" cx="44.5" cy="41.9" r="25.6"/>
	<g>
		<path fill="#231F20" d="M72.5,41.7c0,0.3,0.4,0.2,0.5,0.2C72.9,41.4,72.4,41.7,72.5,41.7z"/>
		<polygon fill="#231F20" points="71.2,37.5 71.4,37.6 70.9,37.1 		"/>
		<path fill="#231F20" d="M70.3,33.8c-0.6,0.6,0.5,1.3,0.4,2.1L70.6,36l0.6,0.2C70.9,35.3,70.3,34.4,70.3,33.8z"/>
		<path fill="#231F20" d="M71.1,31.2c-0.2,0.2-0.4-0.4,0.1,0.5c0-0.1,0-0.1,0-0.1C71.2,31.6,71.1,31.4,71.1,31.2z"/>
		<path fill="#231F20" d="M71.2,31.6C71.4,32,71.3,31.3,71.2,31.6L71.2,31.6z"/>
		<path fill="#231F20" d="M70.3,29.9l0.5,0.4c0.1-0.2-0.1-0.7,0.1-0.5C70.5,29.3,70.4,29.5,70.3,29.9z"/>
		<path fill="#231F20" d="M69.6,29.6l0.2,0.2C69.8,29.8,69.8,29.7,69.6,29.6z"/>
		<path fill="#231F20" d="M70.3,30.3l-0.5-0.5C69.7,30,69.5,30.1,70,30C69.8,30.1,70,30.1,70.3,30.3z"/>
		<path fill="#231F20" d="M70.3,30.7c0,0.3,0,0.8-0.4,0.3C70.4,31.9,70.8,31.6,70.3,30.7z"/>
		<path fill="#231F20" d="M69.6,33.8c0,0-0.1,0.4-0.1,0.4l0.3,0.3C69.7,34.4,69.8,33.7,69.6,33.8z"/>
		<path fill="#231F20" d="M68.9,26.6c-0.1,0.1-0.2,0.4-0.4,0.5l0.4,0.3C68.9,27.1,68.7,26.7,68.9,26.6z"/>
		<path fill="#231F20" d="M68.5,27.1L68,26.7C68.2,27.2,68.4,27.2,68.5,27.1z"/>
		<polygon fill="#231F20" points="68.8,29.9 69.7,30.5 68.7,29.7 		"/>
		<polygon fill="#231F20" points="67.6,24.6 68.1,24.7 67.2,24.5 		"/>
		<path fill="#231F20" d="M66.5,23.3c0.4,0,0.1-0.6,0.5-0.5c-0.3-0.3-0.8-0.4-1.2-0.5C66.1,22.5,66.4,22.8,66.5,23.3z"/>
		<path fill="#231F20" d="M65.2,22.2c0.2,0.1,0.4,0.1,0.6,0.2C65.6,22.2,65.4,22.2,65.2,22.2z"/>
		<path fill="#231F20" d="M67.5,25.8c0-0.1,0.2-0.3,0.1-0.6l-0.2,0.4C67.4,25.7,67.4,25.7,67.5,25.8z"/>
		<path fill="#231F20" d="M67.3,25.6L67.3,25.6c-0.1-0.2-0.2-0.4-0.3-0.4C67.1,25.2,67.1,25.4,67.3,25.6z"/>
		<path fill="#231F20" d="M67.5,25.8C67.5,25.8,67.5,25.8,67.5,25.8C67.4,25.8,67.4,25.9,67.5,25.8z"/>
		<path fill="#231F20" d="M68.4,28.3c-0.4-0.2-1-0.7-0.9,0.1C67.9,28.5,67.8,28,68.4,28.3z"/>
		<path fill="#231F20" d="M67.2,26.4c0,0,0.3,0.6,0.3,0.6c0.1-0.1,0.2-0.3,0.4-0.2C67.8,26.8,67.2,26.4,67.2,26.4z"/>
		<polygon fill="#231F20" points="66.9,26.2 67.2,26.4 67.1,26.2 		"/>
		<path fill="#231F20" d="M65.7,23.3c-0.3-0.1-0.5-0.3-0.8-0.5c0.2,0.3,0.4,0.6,0.7,0.9C65.7,23.6,65.9,23.6,65.7,23.3z"/>
		<path fill="#231F20" d="M66.5,24.4L66.5,24.4C66.4,24.4,66.4,24.5,66.5,24.4z"/>
		<polygon fill="#231F20" points="62.4,20.4 62.4,20.4 62.4,20.4 		"/>
		<path fill="#231F20" d="M65.5,23.7c0.1,0.3,0.3,0.3,0.5,0.3C65.8,24,65.7,23.8,65.5,23.7C65.5,23.7,65.4,23.7,65.5,23.7z"/>
		<path fill="#231F20" d="M64.4,21.6c0,0.2,0.1,0.3,0.2,0.5C64.6,21.9,64.5,21.5,64.4,21.6z"/>
		<path fill="#231F20" d="M66.4,24.2C66.5,24.2,66.5,24.2,66.4,24.2C66.5,24.1,66.5,24.1,66.4,24.2z"/>
		<path fill="#231F20" d="M66.4,24.2c-0.1-0.1-0.3-0.1-0.4-0.1c0.1,0.1,0.3,0.2,0.4,0.3C66.4,24.3,66.4,24.3,66.4,24.2z"/>
		<path fill="#231F20" d="M59.9,21.9c0.3-0.3,1.1-0.2,1.2,0.5c0.6,0.2,1.2-1.1,1.3-2c-0.1,0.1-0.2,0.2-0.9,0
			c0.1,0.3,0.7,1.3,0.1,1.2c-0.7-0.4-0.4-0.5-0.6-0.9c0,0.6-1.3,0-1.5,0.6l0.7,0.2C60.1,21.7,59.8,21.7,59.9,21.9z"/>
		<path fill="#231F20" d="M63.3,21.3l0.2,0.1c-0.2-0.3-0.2-0.5-0.3-1c-0.5-0.2-0.6-0.1-0.7,0l0.9,0.9L63.3,21.3z"/>
		<path fill="#231F20" d="M64.3,22.3c-0.4,0.1-1-0.1-1.1,0.5c0.6,0.5,0.6,0.1,1.1,0.3C63.4,22.2,64.7,23.1,64.3,22.3
			c0.2,0.2,0.4,0.3,0.5,0.5c-0.1-0.2-0.2-0.4-0.3-0.6c0,0,0,0,0,0l0,0l0,0c0,0.1,0,0.1,0,0c0,0,0,0,0,0
			C64.5,22.2,64.4,22.2,64.3,22.3c-0.2-0.3,0-0.1,0.2-0.1c0,0,0,0,0.1,0l0,0c0,0-1.1-0.7-1.1-0.7C63.6,21.7,63.9,21.9,64.3,22.3z"/>
		<path fill="#231F20" d="M66.4,28.3C66.4,28.3,66.4,28.3,66.4,28.3C66.4,28.2,66.3,28.2,66.4,28.3z"/>
		<path fill="#231F20" d="M66.3,27.8c0.1,0,0.3,0,0.4,0.3c0,0.3-0.2,0.1-0.3,0.2c0.2,0.1,0.6,0.3,0.5-0.2l-0.1,0
			c-0.1-0.5,0-1.3,0.1-1.3C66.7,27.1,66.5,27.3,66.3,27.8z"/>
		<path fill="#231F20" d="M65.4,25.1c0,0-0.2-0.2-0.4-0.3c-0.2-0.2-0.4-0.3-0.4-0.3l0.1,0.6l0.2-0.2C65.1,25.4,65.2,25.1,65.4,25.1z
			"/>
		<path fill="#231F20" d="M62.4,20.1l0.4-0.3c0,0-0.2,0-0.4,0.1c-0.2,0-0.4,0.1-0.4,0.1L62.4,20.1z"/>
		<polygon fill="#231F20" points="61.3,19.3 61.6,19 61.1,19 		"/>
		<path fill="#231F20" d="M24.5,53.7l0.2,0.2C24.6,53.8,24.5,53.7,24.5,53.7z"/>
		<path fill="#231F20" d="M23.6,52.1l-0.2,0C23.6,52.1,23.6,52.1,23.6,52.1z"/>
		<path fill="#231F20" d="M29.7,18c-0.6-0.1-1.3-0.3-1,0.1l0.4,0.3C29.2,18.1,29.5,18,29.7,18z"/>
		<path fill="#231F20" d="M19.4,36.8c0,0,0.1-0.1,0.1-0.1c-0.1-0.1-0.2-0.2-0.3-0.4C19.3,36.5,19.3,36.7,19.4,36.8z"/>
		<path fill="#231F20" d="M21.2,37.5l-0.4,0.5C20.9,37.8,21,37.7,21.2,37.5z"/>
		<path fill="#231F20" d="M31.6,60.7c0,0,0.1,0,0.2-0.1c0.1-0.1,0.2-0.1,0.2-0.1C31.7,60.2,31.7,60.5,31.6,60.7z"/>
		<path fill="#231F20" d="M48.4,14.2c-0.4-0.2-0.7-0.3-0.9-0.4C48,14.1,48.3,14.5,48.4,14.2z"/>
		<path fill="#231F20" d="M20.1,55.3c0.2,0.1,0.3,0.1,0.4,0.1C20.3,55.3,20.1,55.2,20.1,55.3z"/>
		<path fill="#231F20" d="M46.4,13.7c0.1,0,0.1,0.1,0.2,0.1c0.3-0.1,0.6-0.1,0.9,0C47.2,13.5,46.8,13.4,46.4,13.7z"/>
		<path fill="#231F20" d="M63.7,54.8C63.7,54.8,63.7,54.8,63.7,54.8C63.7,54.7,63.7,54.8,63.7,54.8z"/>
		<path fill="#231F20" d="M71.7,45.5c0,0.1,0,0.3,0,0.5C71.7,46,71.7,45.8,71.7,45.5z"/>
		<path fill="#231F20" d="M56.7,16.3C56.9,16.4,56.7,16.3,56.7,16.3L56.7,16.3z"/>
		<path fill="#231F20" d="M57.1,18.4c-0.1,0-0.1,0.1-0.2,0.1C57,18.5,57.1,18.4,57.1,18.4z"/>
		<path fill="#231F20" d="M43.6,16.3L43.6,16.3C43.6,16.4,43.6,16.4,43.6,16.3z"/>
		<path fill="#231F20" d="M57,16.7c-0.1-0.1-0.2-0.2-0.3-0.3C56.7,16.5,56.8,16.5,57,16.7z"/>
		<path fill="#231F20" d="M57,16.5c0.1,0.1,0.1,0.1,0.2,0.1C57.3,16.6,57.3,16.5,57,16.5z"/>
		<path fill="#231F20" d="M56.3,16.2c0.2,0.1,0.3,0.2,0.4,0.2c0-0.1-0.1-0.1,0-0.1C56.6,16.3,56.5,16.2,56.3,16.2z"/>
		<path fill="#231F20" d="M47.7,66C47.7,66,47.7,66,47.7,66C47.9,65.8,47.8,65.8,47.7,66z"/>
		<path fill="#231F20" d="M27.2,25.8C27.2,25.8,27.2,25.8,27.2,25.8L27.2,25.8L27.2,25.8z"/>
		<path fill="#231F20" d="M26.8,26.7c-0.2-0.6,0-0.7,0.3-0.9L26,25.2c0,0,0.2,0.4,0.4,0.8C26.6,26.3,26.8,26.7,26.8,26.7z"/>
		<path fill="#231F20" d="M27.2,57.2l-0.1-0.7c1,0.1,1.1,0.6,1.2-0.1c-0.5,0.4-1,0-1.3-0.4c-0.4-0.4-0.7-0.9-1.3-0.5l0-0.5
			c0.1,0.1,0.1,0.1,0.2,0.2c0.1-1-1.1,0.1-1.5-0.9c-0.1-0.4-0.1-0.7,0.2-0.5l-0.7-0.5c-0.1-0.2,0.1-0.3,0.2-0.1c0,0-0.6-1-0.6-1l0,0
			c-0.3-0.1-0.7-0.3-0.9-0.4c0-0.4,0.2,0.1,0.3-0.1c0,0-0.6-0.5-0.6-0.5c0.2-0.4,0.7,0,0.9,0.4c0.5-0.6,0.3-0.6,0.1-0.8
			c-0.2-0.1-0.5-0.4-0.4-1.1l0.4,0.5c0.6-0.6,0.2-1,0.4-1.8c-0.2,0.2-0.7,1.7-1.2,1.1c0-0.2,0-0.5-0.4-0.8c0.5-0.1,0.3-0.5,0.1-0.9
			l0.6-0.1c-0.3-0.4-0.6-0.3-1-0.5c-0.1-0.6,0.4-0.8,0.8-1c0-0.9-0.7,0.8-1-0.3c0.2-0.8-0.3-1.2-0.7-2.1c0.2-0.6,0.4,0.1,0.6-0.1
			l-0.5-0.4c0-0.1,0.2-0.1,0.2-0.1c-0.2-0.4-0.6,0-0.8-0.6c-0.3-0.1-0.1-0.4,0.1-0.8c0.3-0.4,0.5-0.9,0.1-1.3
			c0.2-0.2,0.4,0.1,0.6,0.1c-0.5-1.1-0.4-0.9-0.9-1.9l0.5-0.7c-0.6,0.5-1-0.3-1.4-1.1c-0.3,0.2-0.5,0.3-0.6,0.4c0,0,0-0.3-0.1-0.6
			c0-0.3,0-0.6,0-0.6c0.1-0.1,0.3,0.1,0.5,0.3c0-0.1-0.1-0.2-0.1-0.2c0.3-0.3,0.6,0,0.9,0.3c-0.2,0.1-0.3,0.2-0.5,0.3
			c0.3,0.3,0.7,0.6,1.1,0.7c-0.1-0.1-0.1-0.2-0.1-0.4c0.1,0.1,0.2,0.1,0.2,0.1c0.1,0-0.1-0.2-0.2-0.3l0.8-0.1l-0.3-0.1l0.8-1.1
			c-0.1-0.3-0.3-0.5-0.4-0.8c-0.1-0.3-0.2-0.6-0.3-0.9c-0.2-0.6-0.3-1.3-0.1-2.1c0.3,0.6,0.7,0.4,1.3,0.7c-0.8,0.1-0.1,1.2-0.5,1.8
			c0.2-0.4,0.5-0.2,0.5,0l-0.1-1.5c0.5,0.2,0.4-0.1,0.8-0.4c-1-0.2-0.2-1.2-0.2-1.8c0.3,0.1,0.6,0.4,0.2,1c1-0.3-0.7-1.4,0.3-1.8
			c-0.1,0.1-0.2,0.2-0.1,0.3c-0.1-0.5,0.6-1.2,0.8-0.8L24,29.4c0.2-0.2,0.4-0.5,0.5-0.8c0.2-0.3,0.4-0.6,0.6-1
			c0.3-0.6,0.5-1.3,0.2-1.6c0.1,0.1,0.7,0.8,0.8,0.9c0,0-0.1-0.2-0.1-0.5c-0.1-0.3-0.2-0.7-0.3-1.2c-0.2-0.9-0.3-1.8-0.3-1.8
			c0.4,0.6,2.1,1.4,1.8,2.3c0.3-0.1,0.5-0.3,0.7-0.8c-0.2,0-1.1-0.4-0.9-0.7c1.1,0.1,0.7,0,1.7-0.1c-0.3,0.1-0.9-1-0.5-1.3
			c0.1,0.2,0.8,0.8,0.7,1c0,0,0-0.4,0-0.8c0-0.4,0.1-0.8,0.1-0.8c-0.1,0.3,0.6,0.8,0.9,0.9c-0.2-0.1,0.7-0.5,0.9-0.8l-0.5,0.1
			c1-0.6,0.1-2,1.2-2.6c0,0.3,0.4,1.4,1,1.2c0-0.3-0.1-1.1-0.1-1.9c0.1-0.8,0.3-1.6,0.7-2.1l0.3,0.2c0,0,0.2-0.2,0.3-0.4
			c0.2-0.2,0.3-0.3,0.3-0.3c-0.2,1-0.8,3.3-1.1,4.3c0.5,0,0.3,0.3,0.9,0c0.3,0.2-0.1,0.6-0.3,0.7l1.4-0.5c-0.2-0.3,0-0.6,0.2-0.8
			c0.2-0.2,0.4-0.5,0.3-0.7c0,0-0.1,0.1-0.2,0.2c-0.1,0.1-0.3,0.3-0.4,0.4c-0.3,0.3-0.6,0.7-0.6,0.7c-0.4-0.5,0-2.2,1.2-2.5
			c0.4,0.2,0.2,1.2,0.3,1.4c0-0.3,0.8-0.8,1-0.7l-0.3,0.5c0.6,0,0.7-1.2,1.5-0.7c0.3,0,0.9,0.7,0.9,0.3c-0.6-0.6-1.3-2.9-1.1-3.6
			c0.1,0,1.6,0.3,2,0.7c0.5,0.5-0.4,1.5,0.1,2c0-0.2,0.2-0.4,0.3-0.5c0.3,0.1,0,0.6,0.5,0.4c0-0.7,1.2-0.1,0.2-0.6
			c0.5-0.3,0.6,0,1.3-0.1c-0.3-0.4,0.5-1.5,1.1-1.8c0,0.2,0.1,0.4,0.2,0.5c0.3,0,0.6,0,0.8,0c0.3,0,0.5,0.1,0.7,0.2
			c0.5,0.1,0.9,0.2,1.5,0.2c0.1,0.2,0.6,0.4,0.4,0.7c0.2-0.1,0.3-0.3,0.7-0.3c0.6,0.7-0.8,0-0.4,0.8c0.1-0.4,0.9-0.4,1.5-0.6
			c0-0.6-1.1-0.3-1.6-0.1c0.1-0.8,1.1-1.6,2.4-1.8c1,0,0.3,0.6,0.5,0.5c0.9,0.3,1.4,0,1.8-0.2c0.4-0.2,0.8-0.4,1.5,0.2
			c0.4,0.7-0.3,1-0.3,1.4c-0.8-0.1-1-0.7-1.6-0.8l0.6,0.4c-0.3,0.1-0.8,0.1-1.1-0.1c0.4,0.5,2.9,0.9,4,2c0.3-0.1,0.8,0,0.7-0.3
			l-0.4-0.1c-0.2-0.6,1-0.2,0.6-0.6c0.7,0,1.6-0.2,2.2,0.5L57.7,19c0.1-0.2-0.3-0.6-0.6-0.6c0.5,0,0.7,1.4,1.5,0.9l-0.3-0.7
			c0.7,0.1,1.8-0.1,2.3,0.6c0.1-0.7-0.2-0.1-0.2-1c-0.1,1-1.8-1.1-1.6,0.1c-0.1-1-0.7-0.9-1-1.8c-0.1,0.2,0.1,0.5-0.5,0.1
			c-0.1,0-0.2,0.1-0.2,0.1c0,0,0,0,0,0l0,0c0,0,0,0,0,0c0.1,0.1,0.2,0.3,0.2,0.4c-0.5,0.3-1.5-0.2-1.9-0.1c-0.3-0.3,0.2-0.1,0.1-0.4
			c0,0-0.2,0-0.3,0.1c-0.2,0-0.3,0.1-0.3,0.1c0.1-0.4-0.7-1.1,0.3-1l-0.8-0.3c-0.4-0.4-1-0.8-1.5-0.7c-0.4-0.2-1.1,0.2-0.7,0
			l-1.4-0.1l0-0.1c-0.6-0.2-1.3-0.1-2-0.1c-0.7,0-1.4-0.2-2.1-0.6c-0.5,0.1-0.9,0.2-1.7,0l-0.1-0.4c-0.6,0.1-1.7-0.3-2,0.1
			c-0.3-0.5-1.1-0.6-1.8-0.4c-0.8,0.2-1.5,0.4-2,0.4l0.1,0.5c-0.7,0.1-1.3,0.4-2.1,0.8l0.2,0.4c-0.6,0.5-1.9,0.3-3,0.7
			c0-0.2,0.3-0.2,0.5-0.2c-0.4-0.1-0.8-0.1-1.1,0.1c-0.3,0.2-0.6,0.4-0.9,0.7c-0.6,0.5-1.1,1-1.8,1c-0.2,0.3-0.4,0.4-0.7,0.4
			c0,0,0,0,0.1-0.1c0,0-0.1,0-0.1,0.1c-0.2,0-0.3,0-0.5,0c0.2,0,0.3,0,0.4,0c-0.2,0.1-0.5,0.4-0.7,0.7L29,18.3c0,0,0,0-0.1,0.1
			c-0.4,0-0.1,0.3,0.2,0.5c-0.1,0.2-0.2,0.3-0.2,0.5c-0.7-0.5-0.6,0.8-1.4,0.3c0,0.2-0.3,0.6-0.6,0.9c-0.2,0.4-0.4,0.8-0.2,1.2
			c-0.1-0.1-0.2,0-0.1-0.2c-0.3,0.2-0.7,0.4-0.8,0.8l-0.5-0.3c0,0,0,0.3,0,0.6c0,0.3,0,0.6,0,0.6c-0.6,0.1-0.9,0.1-0.9-0.6
			c-0.3,1.4-0.5,0.9-0.6,2.2l-0.3-0.3c-0.2,0.3-0.2,1.1-0.5,1.1c-1.2,0.2-2.4,3.4-3.9,5.1c0.6,0,0.4,0.2,0.1,0.4
			c-0.3,0.2-0.6,0.5-0.2,0.7c-0.3,0-0.6,0.3-0.7-0.2c-0.1,1.2-1,1.5-0.5,2.5c-0.3,0.1-0.3-0.3-0.5-0.3c0,0.1,0.1,0.4,0,0.5
			c-0.2,0.1-0.2-0.2-0.3-0.4c-0.3,1.2,0.5,1.5,1.3,1.7c-0.5,0.5-0.5,0.8-0.1,1.3c-0.3,0.1-0.6,0.4-0.6-0.3c-0.1,0.4-0.8,2.4-0.1,2.5
			c-0.2,0.1-0.1,0.5,0,0.7c-0.1,0.9-0.1,1-0.1,1.8l0.1-0.2c0.7,0.3,0.2,0.7,0.3,1.4l-0.1,0c-0.5,1.6,0.2,0.7-0.2,2.3l0.5-0.1
			c1,0-0.4,1.4,0.1,2.3l0.2-0.4c0.4,0.4-1,1.6-1,2.2c-0.1,0.1-0.2-0.1-0.3-0.3c-0.2,1.5,0.7,0,1,0.9c-0.3,0.3-0.9,0-0.8,0.7
			c-0.1,0.4,1.7,1.5,1.5,2.6c0.2-0.3,0.3-0.6,0.7-0.2c0.4,0.6-0.1,2.2,1,2.4c0,0.1-0.1,0.2-0.1,0.2c0.5,0.4,1.2,1.3,1.8,1.3
			c-0.6,0.7,0.1,1.2,0.8,1.7c0.6,0.5,1.3,0.9,0.7,1.3l1.2,1.2l-0.1,0.1c0.7,0.8,1.2,0.8,1.7,0.8c0.1,0.2-0.1,0.2-0.2,0.3
			c0.9,1.3,1.2,1.3,2.6,1.5l-0.2,0.5c0.2,0,0.5,0.5,1.1,1c0.5,0.5,1.2,1.1,2,1.2c0,0-0.1,0.1-0.3,0.1c0.9,0.1,1.7,0.9,2.5,1.4
			c0.8,0.5,1.5,0.8,2.1,0c0,0,1.2-0.1,1.2-0.1c-1.3-0.5,0.4-0.7-0.1-1.1c0.5,0,1.2,0.9,0.5,0.8l-0.1-0.1c-0.5,0.8,1.6,0.8,1.5,1.4
			c2.8,0.5,5.6,1.1,8.4,0.9l-0.4-0.7c0,0,0.9-0.1,0.9-0.1c0.3,0.1,0.4,0.5-0.3,0.6c0.4,0.4,1.1-0.5,1.1-0.7c1.3,0.1-0.4,0.9,0,0.9
			l0.5-0.1l-0.1-0.1c0.4-0.4,0.4-0.6,1.2-0.8c0.5,0,0.4,0.4,0.6,0.4c0,0.1,0.1,0.1,0.3-0.1l1.2-0.2l-0.6-0.4
			c0.4-0.4,1.1-0.3,0.4-0.7c0.5,0.4,1.6,0.1,2.6-0.3c1-0.4,1.8-1,2.1-0.9c0.5-0.7,1.1-1.1,1.8-1.5c-0.3,0-0.7-0.5,0-0.8
			c0.2,0.6,0.6,0.6,1.1,0.4c0.4-0.2,0.9-0.5,1.5-0.3c-0.4-0.1,0-0.4,0.4-0.8c0.4-0.4,0.6-0.8,0-0.8c0.5-0.3,0.4,0.4,0.9,0.3
			c0.8-1.4,2.7-2.1,3.8-3.8c-0.1-0.1-0.5,0-0.5-0.5l1.3-0.3c0.1-0.4-0.6-0.8,0.3-1.1c-0.2,0-0.4,0-0.4-0.2c1.4-1.3,2.1-3.1,2.7-4.9
			c0.3-0.9,0.6-1.8,0.9-2.7c0.3-0.9,0.8-1.8,1.3-2.7c-0.4,0.5-0.4,0.1-0.3-0.3C71.6,46.3,71.2,46,71,46c0,0,0.2-0.4,0.4-0.7
			c0.1-0.2,0.2-0.4,0.3-0.5c0.1-0.1,0.1-0.2,0.1-0.2c-0.6-0.3,0-1.7-0.6-1.9l0.1,0.5c-0.7-0.7-1.7,0.8-2.7,0.6
			c0.4,0.4,0.1,0.8-0.3,1.2c-0.3,0.5-0.6,0.9-0.1,1.6c-0.2,0.2-0.3-0.3-0.5-0.2c0.4,0.3,0.4,0.7,0,1.2l-0.1-0.1
			c-0.3,1.7-1,2.3-1.9,3.9l0.5,0.1c-0.2,0.3-0.4,0.4-0.6,0.5c0.4,0.7,0.5-1,1.1-0.3c-0.6,0.1-0.9,0.7-1.2,1.3
			c-0.3,0.6-0.8,1.2-1.3,1c-0.3,0.5,0.6,0.1,0.2,0.7l-0.3,0l0.2,0.3c-0.3,0.3-0.7,0.3-0.9,0.1c0.1-0.1,0.1-0.3,0.2-0.4
			c-0.6,0.2-0.8,1.2-1,1.3l0.5-0.4c-0.2,0.4-0.4,0.8-0.7,1.1c-0.3,0.3-0.6,0.7-0.9,1l-0.5,0.5c-0.2,0.2-0.3,0.3-0.5,0.5
			c-0.3,0.3-0.6,0.7-0.8,1.1l0.2,0.1c-0.7,1.2-1,0.4-2,1.4l0-0.1c-0.1,0.4-0.4,0.6-0.7,0.8c0.2-0.4-0.8-0.1-0.6-0.6
			c-0.9,1.1-0.4,0.7-0.8,1.8l-0.4-0.2c-0.1,0.4-0.1,0.6-0.7,1c0.4-0.5-0.6-0.3-0.2-1c-0.4,0-0.7,0.1-1,0.2c-0.3,0.1-0.5,0.3-0.6,0.4
			c-0.4,0.3-0.7,0.5-1.2,0.1c-0.3,1.2,1.4,0.1,1.1,0.4c0.4,0.2-0.3,0.9-0.8,1c-0.5,0.2-1.2-1-2.3-0.7c0.1,0,0.1-0.1,0.2-0.1
			c-0.5-0.2-0.7,0.6-1.4,0.2c-0.2,0.7-0.7,0.1-0.7,0.9l1.1-0.3c-0.6,0.3-1,1.3-2.1,1c0.1-0.2,0.3-0.4,0.5-0.6
			c-0.3-0.2-0.6,0.3-0.9,0c0-0.8,1.3-0.4,1.8-1c-0.4-0.3-1.1,0.8-0.9-0.1c-0.2,0.6-0.4,0.6-0.8,0.6c-0.3,0-0.7-0.1-1.1,0.3l0-0.5
			c-0.1,0.1-0.4,0.3-0.6,0.3l0.4-0.6c-0.6,0.6-1.2-0.4-1.8-0.1c1.2,0,0.3,0.6,0.8,0.9c-1.6,0.6-0.9-1.3-2.6-1.1
			c0.2,0,0.9,0.3,0.5,0.5c-0.3-0.1-0.7-0.3-0.9-0.6c-1.1-0.1,0.1,0.5-0.4,0.7c-0.3-0.6-0.6,0.1-1.2,0.2l0.1-0.5
			c-1.2-0.6-0.6,0.9-1.7,0.3l0.7-0.5l-0.6,0l0.3-0.5c-0.7,0.2-1,0.1-1.5-0.3c0,0.4-0.4,0.8-0.9,0.6c-0.3-0.4,0.4-0.4-0.4-0.6
			c0.3-0.2,0.6-0.5,0.8,0c0.1-0.1,0.3-0.2,0.4-0.4c-0.3-0.5-1-0.4-1.3-0.5c0.1,0.1,0.2,0.1,0.3,0.2c0,0-0.3,0.1-0.7,0.1
			c-0.3,0-0.7,0-0.7,0c-0.1-0.2,0.1-0.3,0.3-0.4c-0.2-0.1-0.5,0.1-0.8-0.1c0.3-0.3,0.4-0.7,0.9-0.6l-1.2-0.1c0-0.2-0.3-0.7-0.1-0.7
			c-0.4-0.5-1.7-0.1-2.2-0.8c-0.1,0-0.2,0-0.4,0c-0.6-0.6-0.9-1.3-1.9-1.5l0.1-0.9c-0.6-0.4-0.1,1.1-1.2,0.5c-0.8-0.4,0.2-0.6,0.1-1
			c-0.5-0.1-1.6-0.1-1.7-1.1C26.9,56.8,27,57,27.2,57.2z M22.4,49.6c0.2,0.1,0.6,0.4,0.3,0.6C22.1,50.2,22.3,49.9,22.4,49.6z
			 M20.7,35.7c0.1,0.2,0,0.4-0.2,0.5C20.4,36,20.5,35.8,20.7,35.7z M53.6,15.5C53.6,15.5,53.6,15.5,53.6,15.5
			C53.2,15.1,53.3,15.3,53.6,15.5z M54.4,16c0.1,0,0.1-0.1,0.1-0.2c-0.1,0.1-0.3,0-0.5-0.1C54,15.9,54.1,16,54.4,16z M51.1,68.6
			l-0.2-0.1C51.2,68.3,51.1,68.4,51.1,68.6z"/>
		<path fill="#231F20" d="M21,37.4c-0.1,0-0.2,0-0.3,0C20.8,37.5,20.8,37.5,21,37.4z"/>
		<path fill="#231F20" d="M31.5,60.7L31.5,60.7C31.5,60.7,31.6,60.7,31.5,60.7L31.5,60.7z"/>
		<path fill="#231F20" d="M40.4,18.6c-0.2,0-0.3-0.1-0.4-0.2C40,18.5,40.1,18.6,40.4,18.6z"/>
		<path fill="#231F20" d="M59.4,17.6l-0.6-0.2c0.3,0.1,0.3,0.3,0.4,0.4C59.3,17.7,59.3,17.5,59.4,17.6z"/>
		<path fill="#231F20" d="M61.8,23.1c0.1,0,0.1,0.1,0.2,0.1l0.1-0.2C61.9,22.8,61.6,22.8,61.8,23.1z"/>
		<path fill="#231F20" d="M59.1,19.2c-0.2,0.4,0.2,0.4,0.6,0.6c0,0,0,0-0.1,0C60,19.4,59.6,19.3,59.1,19.2z"/>
		<path fill="#231F20" d="M59.8,19.9c0.1,0.1,0.2,0.1,0.3,0.2C60.3,20,60,20,59.8,19.9z"/>
		<path fill="#231F20" d="M55.7,16.2c0.1,0.2,0.3-0.4,0.4-0.2C56.5,15.6,54.5,16,55.7,16.2z"/>
		<polygon fill="#231F20" points="58.6,20.5 58.8,20 58.4,20.2 		"/>
		<path fill="#231F20" d="M56,18.6l0.5,0.4c0-0.1,0.1-0.1,0.2-0.1C56.4,18.8,56.1,18.5,56,18.6z"/>
		<path fill="#231F20" d="M56.8,18.9c0.2,0.1,0.4,0.2,0.5,0.2C57.2,19.1,57,19,56.8,18.9z"/>
		<polygon fill="#231F20" points="57.8,20.2 57.7,20 57.3,19.7 		"/>
		<path fill="#231F20" d="M49.5,16.3l-0.7,0c-0.1,0.2,0.1,0.3,0.3,0.3C49.3,16.5,49.5,16.4,49.5,16.3z"/>
		<path fill="#231F20" d="M51.2,18.1c-0.1-0.1-0.1-0.3-0.2-0.4l-0.2,0.6L51.2,18.1z"/>
		<path fill="#231F20" d="M49.2,17.8c-0.1,0.2-1,0.3-0.2,0.4C49.1,18,49.8,18,49.2,17.8z"/>
		<polygon fill="#231F20" points="39,17.1 39.2,17.1 39,16.1 		"/>
		<path fill="#231F20" d="M31.9,22.7c0.8-0.2-0.2-0.6,0.6-0.7c0-0.3-0.6,0.1-0.6-0.2C31.7,22.2,31.4,22.2,31.9,22.7z"/>
		<path fill="#231F20" d="M31.9,21.8c0-0.1,0.1-0.2,0.1-0.3C32,21.6,31.9,21.7,31.9,21.8z"/>
		<polygon fill="#231F20" points="72.5,43.5 72.7,42.9 72.3,43.3 		"/>
		<path fill="#231F20" d="M71.8,42.3l0.7-0.1l-0.6-0.3C71.9,42,71.9,42.2,71.8,42.3z"/>
		<path fill="#231F20" d="M23.2,48L23,48c-0.1,0.1-0.1,0.2-0.1,0.4L23.2,48z"/>
		<polygon fill="#231F20" points="25.3,53.9 25.3,53.8 24.9,54.3 		"/>
		<path fill="#231F20" d="M29.2,57.5c-0.1-0.2-0.4-0.2-0.5-0.4C29,57.4,28.7,58.1,29.2,57.5z"/>
	</g>
</g>
<circle fill="#FFFFFF" cx="43.6" cy="41.3" r="15.1"/>
</svg>
